<?xml version="1.0" encoding="UTF-8" standalone="no"?>
<!-- Generator: Adobe Illustrator 16.0.0, SVG Export Plug-In . SVG Version: 6.00 Build 0)  -->

<svg
   xmlns:dc="http://purl.org/dc/elements/1.1/"
   xmlns:cc="http://creativecommons.org/ns#"
   xmlns:rdf="http://www.w3.org/1999/02/22-rdf-syntax-ns#"
   xmlns:svg="http://www.w3.org/2000/svg"
   xmlns="http://www.w3.org/2000/svg"
   xmlns:sodipodi="http://sodipodi.sourceforge.net/DTD/sodipodi-0.dtd"
   xmlns:inkscape="http://www.inkscape.org/namespaces/inkscape"
   version="1.1"
   id="Layer_1"
   x="0px"
   y="0px"
   width="624px"
   height="233px"
   viewBox="0 0 624 233"
   enable-background="new 0 0 624 233"
   xml:space="preserve"
   inkscape:version="0.91 r13725"
   sodipodi:docname="logo2-path.svg"><metadata
     id="metadata4428"><rdf:RDF><cc:Work
         rdf:about=""><dc:format>image/svg+xml</dc:format><dc:type
           rdf:resource="http://purl.org/dc/dcmitype/StillImage" /><dc:title></dc:title></cc:Work></rdf:RDF></metadata><defs
     id="defs4426" /><sodipodi:namedview
     pagecolor="#ffffff"
     bordercolor="#666666"
     borderopacity="1"
     objecttolerance="10"
     gridtolerance="10"
     guidetolerance="10"
     inkscape:pageopacity="0"
     inkscape:pageshadow="2"
     inkscape:window-width="1362"
     inkscape:window-height="729"
     id="namedview4424"
     showgrid="true"
     inkscape:zoom="1.3509615"
     inkscape:cx="379.22269"
     inkscape:cy="119.04946"
     inkscape:window-x="0"
     inkscape:window-y="18"
     inkscape:window-maximized="0"
     inkscape:current-layer="Layer_1"><inkscape:grid
       type="xygrid"
       id="grid4530" /></sodipodi:namedview><g
     id="g6307"><g
       id="g6076"><g
         id="g4392"><g
           id="g4394"><path
             d="m 273.496,116.355 c 0,62.765 -50.883,113.652 -113.647,113.652 -62.767,0 -113.652,-50.888 -113.652,-113.652 0,-62.768 50.886,-113.651 113.652,-113.651 62.764,10e-4 113.647,50.884 113.647,113.651 z"
             id="path4396"
             inkscape:connector-curvature="0"
             style="fill:#003e22" /></g></g><g
         id="g4398"><g
           id="g4400"><path
             d="m 219.558,132.982 c -2.249,-5.551 -7.494,-9.662 -16.497,-12.95 -11.45,-4.171 -13.758,-7.511 -13.729,-8.071 0.436,-0.637 4.74,-1.405 13.98,1.964 3.613,1.319 6.589,2.622 9.216,3.772 5.793,2.545 9.629,4.222 13.247,2.679 5.42,-2.323 8.847,-10.894 18.493,-37.33 -0.528,-1.336 -1.085,-2.655 -1.67,-3.953 -8.771,24.043 -13.561,36.716 -17.973,38.595 -2.453,1.049 -5.638,-0.346 -10.924,-2.666 -2.662,-1.164 -5.687,-2.491 -9.387,-3.844 -8.119,-2.957 -14.407,-3.517 -16.819,-1.495 -0.834,0.699 -1.205,1.716 -1.016,2.785 0.75,4.304 10.085,8.309 15.583,10.308 8.172,2.982 12.868,6.571 14.79,11.302 3.834,9.441 -3.288,24.179 -14.062,46.483 -2.914,6.014 -6.202,12.824 -9.587,20.196 1.354,-0.538 2.687,-1.098 4.004,-1.697 2.899,-6.22 5.701,-12.039 8.208,-17.233 11.121,-23.005 18.459,-38.206 14.143,-48.845 z"
             id="path4402"
             inkscape:connector-curvature="0"
             style="fill:#f9ec31" /></g><g
           id="g4404"><path
             d="m 100.262,134.409 c 9.351,4.99 15.686,6.135 17.369,3.135 1.663,-2.961 -2.56,-7.913 -11.022,-12.902 -12.414,-7.317 -18.304,-13.255 -19.706,-19.845 -2.457,-11.574 8.677,-27.184 28.895,-55.513 3.88,-5.446 8.261,-11.583 12.9,-18.197 -1.687,0.616 -3.341,1.296 -4.98,2.008 -3.676,5.209 -7.146,10.076 -10.294,14.495 -21.375,29.95 -32.102,44.984 -29.377,57.815 1.587,7.471 7.891,13.975 21.08,21.753 8.074,4.765 10.118,8.249 9.979,8.929 -0.403,0.374 -4.049,0.776 -13.467,-4.25 -14.761,-7.88 -21.298,-4.061 -29.484,7.932 0.331,1.23 0.674,2.462 1.052,3.681 8.87,-13.598 13.912,-16.048 27.055,-9.041 z"
             id="path4406"
             inkscape:connector-curvature="0"
             style="fill:#f9ec31" /></g></g><g
         id="g4408"><g
           id="g4410"><path
             d="m 159.939,222.494 -0.8,-0.007 0.05,-10.216 0.75,0 c 2.065,0 4.167,-0.068 6.236,-0.201 l 0.665,10.198 c -2.292,0.148 -4.609,0.226 -6.901,0.226 z m -5.443,-0.14 c -2.56,-0.13 -5.143,-0.358 -7.685,-0.671 l 1.255,-10.145 c 2.305,0.286 4.644,0.492 6.952,0.607 l -0.522,10.209 z m 16.958,-0.489 -1.114,-10.155 c 2.312,-0.255 4.631,-0.595 6.901,-1.012 l 1.845,10.055 c -2.511,0.456 -5.073,0.834 -7.632,1.112 z m -29.228,-0.857 c -2.506,-0.417 -5.043,-0.945 -7.553,-1.548 l 2.421,-9.932 c 2.267,0.547 4.568,1.022 6.834,1.403 l -1.702,10.077 z m 41.399,-1.198 -2.286,-9.96 c 2.257,-0.518 4.519,-1.121 6.729,-1.807 l 3.015,9.763 c -2.45,0.757 -4.957,1.432 -7.458,2.004 z m -53.416,-1.548 c -2.461,-0.714 -4.924,-1.53 -7.328,-2.417 l 3.549,-9.584 c 2.175,0.811 4.399,1.544 6.623,2.185 l -2.844,9.816 z m 65.273,-1.912 -3.447,-9.625 c 2.188,-0.781 4.369,-1.654 6.478,-2.588 l 4.134,9.351 c -2.339,1.031 -4.75,1.989 -7.165,2.862 z m -76.902,-2.211 c -2.375,-0.996 -4.73,-2.089 -7.005,-3.252 l 4.646,-9.102 c 2.054,1.049 4.179,2.031 6.322,2.936 l -3.963,9.418 z m 88.263,-2.616 -4.541,-9.159 c 2.085,-1.032 4.146,-2.146 6.139,-3.317 l 5.186,8.805 c -2.205,1.294 -4.486,2.531 -6.784,3.671 z M 107.499,208.7 c -2.231,-1.265 -4.443,-2.621 -6.568,-4.039 l 5.67,-8.503 c 1.919,1.273 3.917,2.506 5.936,3.652 l -5.038,8.89 z m 110.058,-3.282 -5.55,-8.58 c 0.383,-0.244 0.752,-0.494 1.131,-0.741 1.563,-1.05 3.106,-2.149 4.582,-3.265 l 6.159,8.157 c -1.629,1.231 -3.336,2.444 -5.061,3.604 -0.418,0.282 -0.84,0.555 -1.261,0.825 z M 97.137,202.01 c -2.066,-1.516 -4.1,-3.119 -6.053,-4.782 l 6.621,-7.784 c 1.761,1.5 3.602,2.951 5.464,4.318 l -6.032,8.248 z m 130.374,-3.888 -6.503,-7.884 c 1.78,-1.466 3.529,-3.02 5.209,-4.629 l 7.062,7.391 c -1.858,1.776 -3.799,3.497 -5.768,5.122 z M 87.629,194.154 c -1.872,-1.745 -3.708,-3.58 -5.459,-5.463 l 7.489,-6.951 c 1.58,1.697 3.242,3.356 4.929,4.928 l -6.959,7.486 z m 148.921,-4.423 -7.376,-7.07 c 1.601,-1.667 3.154,-3.417 4.629,-5.204 l 7.874,6.513 c -1.633,1.975 -3.359,3.917 -5.127,5.761 z M 79.095,185.234 c -1.65,-1.944 -3.263,-3.982 -4.782,-6.047 l 8.238,-6.049 c 1.374,1.874 2.832,3.715 4.328,5.474 l -7.784,6.622 z m 165.456,-4.892 -8.154,-6.163 c 1.39,-1.84 2.731,-3.758 3.993,-5.702 l 8.583,5.544 c -1.395,2.156 -2.885,4.279 -4.422,6.321 z M 71.693,175.445 71.64,175.367 c -1.443,-2.157 -2.794,-4.338 -4.04,-6.532 l 8.88,-5.057 c 1.126,1.98 2.344,3.953 3.623,5.866 l -8.41,5.801 z m 179.702,-5.369 -8.816,-5.166 c 1.17,-1.994 2.282,-4.063 3.305,-6.14 l 9.171,4.509 c -1.132,2.306 -2.361,4.592 -3.66,6.797 z M 65.393,164.767 c -1.172,-2.277 -2.274,-4.631 -3.276,-6.984 l 9.406,-4.001 c 0.902,2.132 1.9,4.256 2.954,6.317 l -9.084,4.668 z m 191.614,-5.68 -9.363,-4.103 c 0.931,-2.128 1.793,-4.309 2.571,-6.484 l 9.626,3.417 c -0.855,2.411 -1.811,4.826 -2.834,7.17 z M 60.4,153.475 c -0.894,-2.392 -1.719,-4.854 -2.442,-7.322 l 9.811,-2.871 c 0.654,2.224 1.39,4.447 2.205,6.612 l -9.574,3.581 z m 200.898,-5.952 -9.771,-2.996 c 0.681,-2.215 1.284,-4.48 1.803,-6.738 l 9.964,2.281 c -0.577,2.492 -1.248,5.002 -1.996,7.453 z M 56.754,141.682 c -0.609,-2.488 -1.136,-5.035 -1.563,-7.56 l 10.074,-1.706 c 0.388,2.281 0.863,4.581 1.414,6.824 l -9.925,2.442 z m 207.471,-6.147 -10.053,-1.85 c 0.422,-2.275 0.76,-4.595 1.014,-6.901 l 10.163,1.122 c -0.281,2.544 -0.657,5.114 -1.124,7.629 z M 54.521,129.54 c -0.316,-2.545 -0.544,-5.133 -0.675,-7.687 l 10.208,-0.519 c 0.117,2.31 0.321,4.644 0.611,6.94 l -10.144,1.266 z m 211.23,-6.245 -10.194,-0.68 c 0.138,-2.104 0.208,-4.242 0.208,-6.351 l 0,-0.618 10.216,-0.072 0.005,0.69 c 0,2.335 -0.079,4.697 -0.235,7.031 z m -212.04,-6.066 0,-0.776 c 0,-2.311 0.074,-4.64 0.226,-6.945 l 10.196,0.676 c -0.134,2.075 -0.204,4.179 -0.204,6.269 l 0.005,0.694 -10.223,0.082 z m 201.933,-5.766 c -0.11,-2.31 -0.316,-4.645 -0.604,-6.945 l 10.146,-1.256 c 0.313,2.544 0.537,5.133 0.665,7.692 l -10.207,0.509 z m -191.145,-5.455 -10.16,-1.106 c 0.278,-2.55 0.651,-5.119 1.112,-7.635 l 10.053,1.836 c -0.418,2.275 -0.755,4.6 -1.005,6.905 z m 189.937,-5.631 c -0.382,-2.281 -0.854,-4.582 -1.405,-6.829 l 9.926,-2.43 c 0.614,2.497 1.136,5.037 1.563,7.568 l -10.084,1.691 z M 66.344,95.004 56.381,92.733 c 0.572,-2.497 1.241,-5.003 1.989,-7.452 l 9.772,2.985 c -0.677,2.214 -1.278,4.481 -1.798,6.738 z m 185.604,-5.497 c -0.646,-2.214 -1.384,-4.446 -2.195,-6.613 l 9.576,-3.572 c 0.896,2.397 1.715,4.871 2.431,7.324 l -9.812,2.861 z M 69.455,84.293 59.817,80.886 c 0.858,-2.42 1.812,-4.836 2.837,-7.175 l 9.36,4.098 c -0.928,2.113 -1.787,4.294 -2.559,6.484 z m 178.747,-5.286 c -0.902,-2.127 -1.894,-4.25 -2.953,-6.316 l 9.094,-4.664 c 1.171,2.286 2.274,4.635 3.269,6.987 l -9.41,3.993 z m -174.425,-4.995 -9.175,-4.5 c 1.129,-2.31 2.36,-4.59 3.647,-6.797 l 8.821,5.158 c -1.164,1.995 -2.276,4.06 -3.293,6.139 z m 169.481,-5.007 c -1.144,-2.003 -2.373,-4.001 -3.67,-5.937 l 8.395,-5.833 0.118,0.173 c 1.415,2.121 2.779,4.333 4.042,6.547 l -8.885,5.05 z M 79.255,64.309 70.672,58.771 c 1.39,-2.154 2.874,-4.282 4.415,-6.326 l 8.165,6.154 c -1.398,1.85 -2.74,3.769 -3.997,5.71 z m 157.841,-4.802 c -1.38,-1.875 -2.837,-3.715 -4.332,-5.469 l 7.772,-6.63 c 1.657,1.941 3.269,3.976 4.788,6.046 l -8.228,6.053 z M 85.836,55.32 77.952,48.817 c 1.63,-1.977 3.354,-3.919 5.128,-5.769 l 7.386,7.065 c -1.606,1.673 -3.161,3.425 -4.63,5.207 z m 144.143,-4.404 c -1.582,-1.701 -3.24,-3.359 -4.932,-4.927 l 6.949,-7.49 c 1.879,1.74 3.715,3.575 5.464,5.451 l -7.481,6.966 z M 93.418,47.156 86.349,39.778 c 1.845,-1.768 3.786,-3.497 5.763,-5.13 l 6.515,7.872 C 96.84,44 95.086,45.56 93.418,47.156 Z m 128.505,-3.94 c -1.762,-1.5 -3.604,-2.95 -5.469,-4.318 l 6.026,-8.249 c 2.068,1.512 4.105,3.118 6.059,4.779 l -6.616,7.788 z m -120.02,-3.292 -6.161,-8.15 c 1.663,-1.262 3.393,-2.49 5.135,-3.659 0.39,-0.257 0.784,-0.518 1.182,-0.772 l 5.564,8.574 c -0.359,0.23 -0.712,0.46 -1.062,0.699 -1.583,1.053 -3.148,2.167 -4.658,3.308 z M 213.025,36.51 c -1.92,-1.278 -3.918,-2.504 -5.938,-3.646 l 5.025,-8.899 c 2.236,1.265 4.447,2.621 6.576,4.04 l -5.663,8.505 z m -101.843,-2.8 -5.192,-8.806 c 2.209,-1.304 4.495,-2.538 6.784,-3.677 l 4.541,9.157 c -2.071,1.026 -4.132,2.145 -6.133,3.326 z m 92.217,-2.82 c -2.056,-1.049 -4.184,-2.032 -6.321,-2.933 l 3.954,-9.422 c 2.367,0.997 4.721,2.087 6.999,3.242 l -4.632,9.113 z m -82.294,-2.284 -4.143,-9.346 c 2.351,-1.038 4.762,-2.006 7.172,-2.869 l 3.441,9.624 c -2.176,0.78 -4.354,1.652 -6.47,2.591 z m 72.076,-2.183 c -2.166,-0.801 -4.395,-1.536 -6.617,-2.181 l 2.836,-9.815 c 2.466,0.711 4.932,1.521 7.331,2.411 l -3.55,9.585 z m -61.637,-1.732 -3.017,-9.765 c 2.446,-0.752 4.947,-1.429 7.45,-2.008 l 2.297,9.962 c -2.254,0.516 -4.521,1.128 -6.73,1.811 z m 50.97,-1.524 c -2.244,-0.544 -4.544,-1.016 -6.83,-1.399 l 1.686,-10.083 c 2.536,0.429 5.081,0.951 7.561,1.555 l -2.417,9.927 z M 142.37,22.031 140.516,11.984 c 2.522,-0.473 5.09,-0.846 7.634,-1.129 l 1.118,10.159 c -2.302,0.253 -4.617,0.595 -6.898,1.017 z m 29.168,-0.867 c -2.296,-0.288 -4.63,-0.486 -6.945,-0.602 l 0.514,-10.208 c 2.564,0.13 5.146,0.355 7.687,0.667 l -1.256,10.143 z m -18.101,-0.52 -0.672,-10.192 c 2.311,-0.155 4.669,-0.232 6.991,-0.232 l 0.716,0.003 -0.062,10.22 -0.654,0 c -2.102,-0.001 -4.225,0.066 -6.319,0.201 z"
             id="path4412"
             inkscape:connector-curvature="0"
             style="fill:#f9ec31" /></g></g><g
         id="g4414"><g
           id="g4416"><path
             d="m 128.974,130.964 -0.872,-0.27 c 0.288,0.103 0.581,0.179 0.872,0.27 z"
             id="path4418"
             inkscape:connector-curvature="0"
             style="fill:#ed3258" /></g><g
           id="g4420"><path
             d="m 224.803,63.183 c -1.217,-2.888 -1.471,-6.106 -0.675,-9.18 l -2.832,-0.724 c -0.906,3.532 -0.677,7.215 0.622,10.561 -2.793,0.898 -5.358,2.519 -7.419,4.777 l -0.459,-0.489 c -1.18,-1.26 -2.986,-1.707 -4.615,-1.141 L 186.7,74.765 c -1.39,0.475 -2.452,1.62 -2.82,3.043 -0.369,1.428 0,2.938 0.987,4.031 l 0.31,0.344 12.262,-2.175 -4.783,10.946 c -0.801,-0.834 -1.605,-1.692 -2.42,-2.588 l -1.913,-2.123 c -4.488,3.14 -6.401,2.411 -7.798,1.309 -0.335,-0.259 -0.647,-0.494 -0.978,-0.748 l -11.504,4.534 2.428,-11.257 c -0.496,-0.346 -0.988,-0.681 -1.477,-1.016 l -11.33,5.329 2.08,-11.09 C 147.796,66.705 138.446,65.147 129.34,67.802 l 0.795,11.292 -10.251,-6.676 c -1.2,0.877 -2.348,1.835 -3.432,2.88 l 4.903,10.294 -11.297,-1.903 c -0.742,1.356 -1.404,2.756 -1.96,4.199 l 8.493,8.075 -10.673,2.694 c -0.249,9.93 4.333,19.367 13.204,26.958 1.591,1.357 3.297,2.459 5.075,3.38 l 8.38,-8.565 2.37,11.887 c 0.865,0.124 1.734,0.224 2.61,0.307 l 6.331,-10.515 4.843,10.534 c 0.824,-0.054 1.644,-0.119 2.458,-0.193 l 5.199,-11.338 6.169,10.093 c 0.017,0 0.034,-0.006 0.048,-0.006 7.663,-0.837 13.443,3.624 16.31,9.405 l 11.699,2.847 -9.957,8.503 c -0.081,0.478 -0.189,0.966 -0.324,1.461 l 6.096,10.337 -13.51,-0.537 -1.524,11.848 -9.662,-8.066 c -1.491,-0.009 -2.984,-0.248 -4.467,-0.681 l -11.303,6.239 0.958,-11.746 c -0.462,-0.335 -0.918,-0.68 -1.373,-1.029 l -11.752,4.045 3.341,-11.057 c -4.462,-3.781 -9.609,-5.378 -14.901,-4.61 -5.269,0.766 -10.131,3.825 -14.272,8.846 l 4.808,11.336 -11.352,-2.147 -1.647,2.367 4.889,11.561 -11.162,-2.55 -2.31,3.316 10.201,8.344 14.864,-21.346 0.129,-0.197 c 2.442,-3.786 5.258,-6.168 7.738,-6.522 0.558,-0.086 2.255,-0.33 4.589,1.677 l 1.246,1.074 c 9.283,8.023 23.304,20.148 39.746,15.067 20.292,-6.273 26.527,-22.783 23.716,-36.37 -3.245,-15.615 -17.107,-26.141 -32.247,-24.478 -1.175,0.135 -2.382,0.274 -3.619,0.423 -10.361,1.217 -23.263,2.736 -29.892,-2.934 -6.628,-5.664 -9.518,-12.306 -8.368,-19.193 1.27,-7.534 6.928,-13.443 11.867,-15.384 6.686,-2.627 15.379,-3.494 41.246,16.84 9.101,7.151 18.456,2.833 24.715,-1.802 l -1.917,-2.127 c -0.846,-0.958 -1.706,-1.95 -2.58,-2.967 l 12.621,-2.243 -4.627,10.573 1.529,1.697 c 0.484,0.547 1.087,0.944 1.75,1.185 0.673,0.244 1.401,0.325 2.125,0.225 1.447,-0.211 2.698,-1.126 3.321,-2.445 l 10.41,-21.681 c 0.782,-1.63 0.479,-3.571 -0.762,-4.893 l -2.49,-2.651 c 4.153,-4.692 10.91,-6.169 16.724,-3.489 l 1.229,-2.649 c -3.116,-1.45 -6.459,-1.886 -9.651,-1.438 z"
             id="path4422"
             inkscape:connector-curvature="0"
             style="fill:#f9ec31" /></g></g></g><g
       id="g6283"><g
         id="g4384"
         style="fill:#231f20;fill-opacity:1"
         transform="matrix(1.1414054,0,0,1,-50.89109,22)"><g
           id="g4386"
           style="fill:#231f20;fill-opacity:1"><rect
             x="307.548"
             y="125.27"
             width="271.595"
             height="5.6420002"
             id="rect4388"
             style="fill:#231f20;fill-opacity:1" /></g></g><g
         style="font-style:normal;font-variant:normal;font-weight:normal;font-stretch:normal;font-size:105px;line-height:125%;font-family:Monospace;-inkscape-font-specification:Monospace;text-align:start;letter-spacing:0px;word-spacing:0px;writing-mode:lr-tb;text-anchor:start;fill:#003e22;fill-opacity:1;stroke:none;stroke-width:1px;stroke-linecap:butt;stroke-linejoin:miter;stroke-opacity:1"
         id="text4430"><path
           d="m 358.06351,88.740883 q 0,12.246097 -8.67188,19.394527 -8.67187,7.08985 -23.49609,7.08985 -12.94922,0 -20.85938,-5.27344 l 0,-16.054687 q 11.3086,6.328127 20.97657,6.328127 6.5625,0 10.2539,-2.46094 3.69141,-2.519531 3.69141,-6.855468 0,-2.519532 -0.82031,-4.394532 -0.76172,-1.933593 -2.22657,-3.574218 -1.46484,-1.640625 -7.26562,-5.976563 -8.08594,-5.800781 -11.36719,-11.484375 -3.28125,-5.683594 -3.28125,-12.246094 0,-7.558593 3.63281,-13.476562 3.63282,-5.976563 10.3125,-9.257813 6.73828,-3.339843 15.46875,-3.339843 12.71485,0 23.26172,5.800781 l -6.38672,13.652344 q -9.14062,-4.335938 -16.875,-4.335938 -4.86328,0 -7.96875,2.636719 -3.10547,2.636719 -3.10547,6.972656 0,3.574219 1.9336,6.269531 1.93359,2.636719 8.67187,7.03125 7.08985,4.6875 10.60547,10.371094 3.51563,5.625 3.51563,13.183594 z"
           style="font-size:120px;fill:#231f20;fill-opacity:1"
           id="path6273" /><path
           d="m 395.79788,115.22526 q -11.77734,0 -18.10547,-6.26953 -6.26953,-6.32813 -6.26953,-17.812503 0,-12.421875 4.33594,-22.558594 4.39453,-10.195313 12.30469,-15.703125 7.91015,-5.566406 18.04687,-5.566406 10.66406,0 19.21875,4.21875 l -5.39062,13.417968 q -3.16407,-1.347656 -6.21094,-2.34375 -3.04688,-0.996093 -6.91406,-0.996093 -4.98047,0 -9.02344,3.75 -3.98438,3.75 -6.26953,10.3125 -2.22656,6.503906 -2.22656,14.003906 0,5.625 2.63671,8.496094 2.69532,2.812503 7.44141,2.812503 4.45313,0 8.26172,-1.34766 3.80859,-1.40625 7.85156,-3.457031 l 0,14.414061 q -8.90625,4.62891 -19.6875,4.62891 z"
           style="font-size:120px;fill:#231f20;fill-opacity:1"
           id="path6275" /><path
           d="m 442.90726,33.194008 q 0,-5.097656 2.7539,-7.675781 2.8125,-2.636719 7.91016,-2.636719 4.27734,0 6.50391,1.816406 2.22656,1.816406 2.22656,5.214844 0,4.6875 -2.57813,7.617187 -2.57812,2.871094 -7.96875,2.871094 -8.84765,0 -8.84765,-7.207031 z m 0.9375,80.859372 -17.63672,0 13.88672,-65.50781 17.63672,0 -13.88672,65.50781 z"
           style="font-size:120px;fill:#231f20;fill-opacity:1"
           id="path6277" /><path
           d="m 497.73605,68.70182 3.28125,0 q 8.32032,0 13.06641,-4.042968 4.80469,-4.042969 4.80469,-10.839844 0,-10.546875 -11.42578,-10.546875 l -4.33594,0 -5.39063,25.429687 z m 39.14063,-15.351562 q 0,14.121094 -9.96094,22.207031 -9.90234,8.027344 -27.36328,8.027344 l -5.03906,0 -6.38672,30.468747 -17.8711,0 18.10547,-85.66406 19.80469,0 q 14.17969,0 21.44531,6.269532 7.26563,6.210937 7.26563,18.691406 z"
           style="font-style:italic;font-variant:normal;font-weight:bold;font-stretch:normal;font-size:120px;font-family:'Open Sans';-inkscape-font-specification:'Open Sans Bold Italic';fill:#003e22;fill-opacity:1"
           id="path6279" /><path
           d="m 542.73605,48.54557 17.28516,0 3.28125,30.351563 q 0.82031,7.148437 0.82031,17.167969 l 0.35156,0 q 1.17188,-2.988282 2.57813,-6.972657 1.40625,-4.042968 3.80859,-9.023437 l 15.23438,-31.523438 19.16015,0 -39.84375,74.88281 q -10.37109,19.45313 -28.30078,19.45313 -5.27343,0 -8.61328,-1.11328 l 0,-14.0625 q 3.98438,0.76172 6.79688,0.76172 4.92187,0 8.61328,-2.8125 3.75,-2.8125 6.91406,-8.73047 l 1.52344,-2.8711 -9.60938,-65.50781 z"
           style="font-style:italic;font-variant:normal;font-weight:bold;font-stretch:normal;font-size:120px;font-family:'Open Sans';-inkscape-font-specification:'Open Sans Bold Italic';fill:#003e22;fill-opacity:1"
           id="path6281" /></g><g
         style="font-style:normal;font-variant:normal;font-weight:normal;font-stretch:normal;font-size:105px;line-height:125%;font-family:Monospace;-inkscape-font-specification:Monospace;text-align:start;letter-spacing:0px;word-spacing:0px;writing-mode:lr-tb;text-anchor:start;fill:#231f20;fill-opacity:1;stroke:none;stroke-width:1px;stroke-linecap:butt;stroke-linejoin:miter;stroke-opacity:1"
         id="text4436"><path
           d="m 317.64587,193.61922 0,-28.55469 6.05469,0 0,23.55469 11.58203,0 0,5 -17.63672,0 z"
           style="font-style:normal;font-variant:normal;font-weight:bold;font-stretch:normal;font-size:40px;font-family:'Open Sans';-inkscape-font-specification:'Open Sans Bold';fill:#231f20;fill-opacity:1"
           id="path6248" /><path
           d="m 353.62244,193.61922 -1.15235,-2.96875 -0.15625,0 q -1.5039,1.89453 -3.10547,2.63672 -1.58203,0.72265 -4.14062,0.72265 -3.14453,0 -4.96094,-1.79687 -1.79687,-1.79688 -1.79687,-5.11719 0,-3.47656 2.42187,-5.11719 2.44141,-1.66015 7.34375,-1.83594 l 3.78906,-0.11718 0,-0.95703 q 0,-3.32032 -3.39843,-3.32032 -2.61719,0 -6.15235,1.58203 l -1.97265,-4.02343 q 3.76953,-1.97266 8.35937,-1.97266 4.39453,0 6.73828,1.91406 2.34375,1.91407 2.34375,5.82032 l 0,14.55078 -4.16015,0 z m -1.75782,-10.11719 -2.30468,0.0781 q -2.59766,0.0781 -3.86719,0.9375 -1.26953,0.85938 -1.26953,2.61719 0,2.51953 2.89062,2.51953 2.07032,0 3.30078,-1.1914 1.25,-1.19141 1.25,-3.16407 l 0,-1.79687 z"
           style="font-style:normal;font-variant:normal;font-weight:bold;font-stretch:normal;font-size:40px;font-family:'Open Sans';-inkscape-font-specification:'Open Sans Bold';fill:#231f20;fill-opacity:1"
           id="path6250" /><path
           d="m 373.09509,189.26375 q 1.5625,0 3.75,-0.6836 l 0,4.4336 q -2.22656,0.99609 -5.46875,0.99609 -3.57422,0 -5.21484,-1.79687 -1.62109,-1.81641 -1.62109,-5.42969 l 0,-10.52734 -2.85157,0 0,-2.51954 3.28125,-1.99218 1.71875,-4.60938 3.8086,0 0,4.64844 6.11328,0 0,4.47266 -6.11328,0 0,10.52734 q 0,1.26953 0.70312,1.875 0.72266,0.60547 1.89453,0.60547 z"
           style="font-style:normal;font-variant:normal;font-weight:bold;font-stretch:normal;font-size:40px;font-family:'Open Sans';-inkscape-font-specification:'Open Sans Bold';fill:#231f20;fill-opacity:1"
           id="path6252" /><path
           d="m 380.98572,166.13875 q 0,-2.91016 3.24219,-2.91016 3.24218,0 3.24218,2.91016 0,1.38672 -0.82031,2.16797 -0.80078,0.76172 -2.42187,0.76172 -3.24219,0 -3.24219,-2.92969 z m 6.21094,27.48047 -5.95704,0 0,-21.83594 5.95704,0 0,21.83594 z"
           style="font-style:normal;font-variant:normal;font-weight:bold;font-stretch:normal;font-size:40px;font-family:'Open Sans';-inkscape-font-specification:'Open Sans Bold';fill:#231f20;fill-opacity:1"
           id="path6254" /><path
           d="m 413.58337,193.61922 -5.95703,0 0,-12.75391 q 0,-2.36328 -0.83984,-3.53516 -0.83984,-1.1914 -2.67578,-1.1914 -2.5,0 -3.61328,1.67969 -1.11328,1.66015 -1.11328,5.52734 l 0,10.27344 -5.95704,0 0,-21.83594 4.55079,0 0.80078,2.79297 0.33203,0 q 0.99609,-1.58203 2.73437,-2.38281 1.75782,-0.82032 3.98438,-0.82032 3.80859,0 5.78125,2.07032 1.97265,2.05078 1.97265,5.9375 l 0,14.23828 z"
           style="font-style:normal;font-variant:normal;font-weight:bold;font-stretch:normal;font-size:40px;font-family:'Open Sans';-inkscape-font-specification:'Open Sans Bold';fill:#231f20;fill-opacity:1"
           id="path6256" /><path
           d="m 448.09509,193.61922 -2.07031,-6.79688 -10.41016,0 -2.07031,6.79688 -6.52344,0 10.07813,-28.67188 7.40234,0 10.11719,28.67188 -6.52344,0 z m -3.51562,-11.875 q -2.8711,-9.23828 -3.24219,-10.44922 -0.35156,-1.21094 -0.50781,-1.91406 -0.64453,2.5 -3.69141,12.36328 l 7.44141,0 z"
           style="font-style:normal;font-variant:normal;font-weight:bold;font-stretch:normal;font-size:40px;font-family:'Open Sans';-inkscape-font-specification:'Open Sans Bold';fill:#231f20;fill-opacity:1"
           id="path6258" /><path
           d="m 477.27478,193.61922 -5.95703,0 0,-12.75391 q 0,-2.36328 -0.80078,-3.53516 -0.78125,-1.1914 -2.48047,-1.1914 -2.28516,0 -3.32031,1.67969 -1.03516,1.67968 -1.03516,5.52734 l 0,10.27344 -5.95703,0 0,-21.83594 4.55078,0 0.80078,2.79297 0.33203,0 q 0.87891,-1.50391 2.53907,-2.34375 1.66015,-0.85938 3.80859,-0.85938 4.90234,0 6.64062,3.20313 l 0.52735,0 q 0.8789,-1.52344 2.57812,-2.36328 1.71875,-0.83985 3.86719,-0.83985 3.71094,0 5.60547,1.91407 1.91406,1.89453 1.91406,6.09375 l 0,14.23828 -5.97656,0 0,-12.75391 q 0,-2.36328 -0.80078,-3.53516 -0.78125,-1.1914 -2.48047,-1.1914 -2.1875,0 -3.28125,1.5625 -1.07422,1.5625 -1.07422,4.96094 l 0,10.95703 z"
           style="font-style:normal;font-variant:normal;font-weight:bold;font-stretch:normal;font-size:40px;font-family:'Open Sans';-inkscape-font-specification:'Open Sans Bold';fill:#231f20;fill-opacity:1"
           id="path6260" /><path
           d="m 506.06384,175.6114 q -1.89453,0 -2.96875,1.21094 -1.07422,1.19141 -1.23047,3.39844 l 8.35938,0 q -0.0391,-2.20703 -1.15234,-3.39844 -1.11329,-1.21094 -3.00782,-1.21094 z m 0.83985,18.39844 q -5.27344,0 -8.24219,-2.91015 -2.96875,-2.91016 -2.96875,-8.24219 0,-5.48828 2.73437,-8.47656 2.75391,-3.00782 7.59766,-3.00782 4.62891,0 7.20703,2.63672 2.57813,2.63672 2.57813,7.28516 l 0,2.89062 -14.08203,0 q 0.0976,2.53907 1.5039,3.96485 1.40625,1.42578 3.94531,1.42578 1.97266,0 3.73047,-0.41016 1.75782,-0.41015 3.67188,-1.30859 l 0,4.60937 q -1.5625,0.78125 -3.33985,1.15235 -1.77734,0.39062 -4.33593,0.39062 z"
           style="font-style:normal;font-variant:normal;font-weight:bold;font-stretch:normal;font-size:40px;font-family:'Open Sans';-inkscape-font-specification:'Open Sans Bold';fill:#231f20;fill-opacity:1"
           id="path6262" /><path
           d="m 532.88025,171.37312 q 1.21094,0 2.01172,0.17578 l -0.44922,5.58594 q -0.72266,-0.19531 -1.75781,-0.19531 -2.85157,0 -4.45313,1.46484 -1.58203,1.46485 -1.58203,4.10157 l 0,11.11328 -5.95703,0 0,-21.83594 4.51172,0 0.8789,3.67187 0.29297,0 q 1.01563,-1.83593 2.73438,-2.94921 1.73828,-1.13282 3.76953,-1.13282 z"
           style="font-style:normal;font-variant:normal;font-weight:bold;font-stretch:normal;font-size:40px;font-family:'Open Sans';-inkscape-font-specification:'Open Sans Bold';fill:#231f20;fill-opacity:1"
           id="path6264" /><path
           d="m 538.64197,166.13875 q 0,-2.91016 3.24219,-2.91016 3.24218,0 3.24218,2.91016 0,1.38672 -0.82031,2.16797 -0.80078,0.76172 -2.42187,0.76172 -3.24219,0 -3.24219,-2.92969 z m 6.21094,27.48047 -5.95704,0 0,-21.83594 5.95704,0 0,21.83594 z"
           style="font-style:normal;font-variant:normal;font-weight:bold;font-stretch:normal;font-size:40px;font-family:'Open Sans';-inkscape-font-specification:'Open Sans Bold';fill:#231f20;fill-opacity:1"
           id="path6266" /><path
           d="m 559.95056,194.00984 q -10.19531,0 -10.19531,-11.1914 0,-5.56641 2.77344,-8.4961 2.77343,-2.94922 7.94922,-2.94922 3.78906,0 6.79687,1.48438 l -1.75781,4.60937 q -1.40625,-0.5664 -2.61719,-0.91797 -1.21094,-0.37109 -2.42187,-0.37109 -4.64844,0 -4.64844,6.60156 0,6.40625 4.64844,6.40625 1.71875,0 3.18359,-0.44922 1.46484,-0.46875 2.92969,-1.44531 l 0,5.09766 q -1.44532,0.91797 -2.92969,1.26953 -1.46484,0.35156 -3.71094,0.35156 z"
           style="font-style:normal;font-variant:normal;font-weight:bold;font-stretch:normal;font-size:40px;font-family:'Open Sans';-inkscape-font-specification:'Open Sans Bold';fill:#231f20;fill-opacity:1"
           id="path6268" /><path
           d="m 585.49744,193.61922 -1.15235,-2.96875 -0.15625,0 q -1.5039,1.89453 -3.10547,2.63672 -1.58203,0.72265 -4.14062,0.72265 -3.14453,0 -4.96094,-1.79687 -1.79687,-1.79688 -1.79687,-5.11719 0,-3.47656 2.42187,-5.11719 2.44141,-1.66015 7.34375,-1.83594 l 3.78906,-0.11718 0,-0.95703 q 0,-3.32032 -3.39843,-3.32032 -2.61719,0 -6.15235,1.58203 l -1.97265,-4.02343 q 3.76953,-1.97266 8.35937,-1.97266 4.39453,0 6.73828,1.91406 2.34375,1.91407 2.34375,5.82032 l 0,14.55078 -4.16015,0 z m -1.75782,-10.11719 -2.30468,0.0781 q -2.59766,0.0781 -3.86719,0.9375 -1.26953,0.85938 -1.26953,2.61719 0,2.51953 2.89062,2.51953 2.07032,0 3.30078,-1.1914 1.25,-1.19141 1.25,-3.16407 l 0,-1.79687 z"
           style="font-style:normal;font-variant:normal;font-weight:bold;font-stretch:normal;font-size:40px;font-family:'Open Sans';-inkscape-font-specification:'Open Sans Bold';fill:#231f20;fill-opacity:1"
           id="path6270" /></g></g></g></svg>