<?xml version="1.0" encoding="utf-8"?>
<!-- Generator: Adobe Illustrator 16.0.0, SVG Export Plug-In . SVG Version: 6.00 Build 0)  -->
<!DOCTYPE svg PUBLIC "-//W3C//DTD SVG 1.1//EN" "http://www.w3.org/Graphics/SVG/1.1/DTD/svg11.dtd">
<svg version="1.1" id="Layer_1" xmlns="http://www.w3.org/2000/svg" xmlns:xlink="http://www.w3.org/1999/xlink" x="0px" y="0px"
	 width="624px" height="233px" viewBox="0 0 624 233" enable-background="new 0 0 624 233" xml:space="preserve">
<g>
	<g>
		<g>
			<g>
				<path fill="#231F20" d="M309.086,107.452V85.98h7.396v5.234c3.542,6.436,8.178,9.652,13.904,9.652
					c2.918,0,5.383-0.896,7.398-2.684c2.009-1.783,3.016-4.122,3.016-7.012c0-2.804-0.824-4.826-2.464-6.063
					c-1.648-1.231-4.748-2.454-9.311-3.675c-5.302-1.414-9.227-2.751-11.78-4.011c-2.546-1.266-4.579-3.067-6.098-5.402
					c-1.52-2.344-2.277-5.108-2.277-8.314c0-4.958,1.654-8.919,4.951-11.881c3.307-2.961,7.449-4.445,12.438-4.445
					c4.734,0,9.124,1.531,13.184,4.594v-3.954h7.224v17.943h-7.224v-4.127c-3.032-4.561-7.217-6.844-12.546-6.844
					c-3.23,0-5.709,0.742-7.439,2.233c-1.73,1.488-2.593,3.264-2.593,5.334c0,1.588,0.438,2.987,1.318,4.19
					c0.877,1.203,1.998,2.09,3.36,2.655c1.361,0.57,4.04,1.361,8.036,2.377c5.214,1.355,8.996,2.621,11.349,3.8
					c2.354,1.174,4.38,3.139,6.077,5.885c1.702,2.756,2.556,5.915,2.556,9.489c0,5.042-1.783,9.212-5.34,12.499
					c-3.557,3.289-7.956,4.937-13.199,4.937c-5.386,0-10.231-1.947-14.541-5.828v4.889H309.086z"/>
			</g>
			<g>
				<path fill="#231F20" d="M407.528,83.388l7.696,4.294c-1.734,6.575-5.225,11.669-10.481,15.282
					c-5.258,3.615-11.302,5.427-18.135,5.427c-8.953,0-16.137-2.909-21.553-8.719c-5.416-5.808-8.118-12.997-8.118-21.556
					c0-9.379,2.716-16.85,8.161-22.402c5.444-5.555,12.537-8.334,21.298-8.334c7.736,0,14.244,2.111,19.516,6.336v-5.401h7.654
					v19.004h-7.654c-1.7-3.852-4.323-6.835-7.863-8.947c-3.543-2.114-7.271-3.168-11.183-3.168c-5.895,0-10.734,2.123-14.521,6.377
					c-3.781,4.252-5.675,9.625-5.675,16.113c0,6.662,2.027,12.101,6.075,16.324c4.057,4.222,8.857,6.336,14.418,6.336
					c4.563,0,8.713-1.467,12.456-4.399C403.362,93.015,405.994,88.833,407.528,83.388z"/>
			</g>
			<g>
				<path fill="#231F20" d="M429.486,100.056V55.713h-6.378v-7.399h21.682v7.399h-6.375v44.342h6.375v7.396h-21.682v-7.396H429.486z
					"/>
			</g>
			<g>
				<path fill="#003E22" d="M480.356,100.056V55.713h-7.439v-7.399h21.127c6.211,0,10.859,0.441,13.946,1.318
					c3.091,0.882,5.674,2.873,7.76,5.976c2.085,3.104,3.125,6.765,3.125,10.991c0,3.374-0.686,6.398-2.061,9.072
					c-1.376,2.679-3.076,4.659-5.1,5.933c-2.026,1.275-4.313,2.133-6.844,2.574c-2.541,0.436-6.374,0.656-11.502,0.656h-4.09v15.221
					h7.658v7.396h-24.021v-7.396H480.356z M489.279,77.693h5.105c5.809,0,9.84-0.829,12.076-2.487
					c2.239-1.659,3.359-4.582,3.359-8.78c0-2.664-0.593-4.875-1.787-6.634c-1.194-1.757-2.664-2.873-4.423-3.357
					c-1.754-0.482-4.688-0.721-8.799-0.721h-5.532V77.693z"/>
			</g>
			<g>
				<path fill="#003E22" d="M545.978,100.056V80.541l-17.6-24.827h-7.226v-7.399h24.315v7.399h-7.446l13.059,18.281l11.935-18.281
					h-7.429v-7.399h23.557v7.399h-7.828l-16.405,24.827v19.515h8.076v7.396h-24.953v-7.396H545.978z"/>
			</g>
		</g>
		<g>
			<path fill="#231F20" d="M322.425,181.996c0,0.292,0,0.915-0.125,1.375c-0.167,1.002-0.917,1.463-2.043,1.463h-11.682
				c-0.999,0-1.835-0.711-1.835-2.129v-26.236l0.251-0.253h1.251c1.42,0,1.667,0.71,1.667,2.085v23.82
				c1.253-0.083,2.546-0.125,3.629-0.125H322.425z"/>
			<path fill="#231F20" d="M330.271,177.404l-2.419,7.466c-0.377,0.087-0.919,0.126-1.421,0.126c-0.624,0-1.041-0.083-1.542-0.205
				l-0.084-0.126l9.552-28.324c0.458-0.082,1.292-0.125,1.835-0.125c0.501,0,1.378,0.043,1.752,0.125l9.552,28.324
				c-0.461,0.292-1.127,0.416-1.876,0.416c-1.041,0-1.502-0.335-1.919-1.667l-2.004-6.01c-0.667,0-2.671,0.042-2.918,0.042h-5.589
				C332.897,177.446,330.937,177.404,330.271,177.404z M331.186,174.696c0.629,0,2.173-0.043,2.421-0.043h4.797
				c0.206,0,1.709,0.043,2.419,0.043l-2.629-7.928c-0.79-2.457-1.625-5.089-2.126-6.963h-0.209
				c-0.416,1.624-1.044,3.835-1.418,4.961L331.186,174.696z"/>
			<path fill="#231F20" d="M354.505,159.054c-0.545,0-1.709,0.043-2.254,0.043h-5.339c-0.083-0.461-0.123-0.959-0.123-1.376
				c0-0.416,0.04-0.876,0.123-1.38h18.354c0.169,0.378,0.249,0.876,0.249,1.337c0,1.002-0.625,1.419-1.959,1.419h-3.548
				c-0.498,0-1.748-0.043-2.293-0.043v25.78c-0.457,0.079-1.084,0.123-1.584,0.123c-0.54,0-1.168-0.044-1.626-0.123V159.054z"/>
			<path fill="#231F20" d="M370.48,156.341c0.376-0.082,1.002-0.125,1.544-0.125c0.584,0,1.169,0.043,1.627,0.125v28.493
				c-0.458,0.079-1.043,0.123-1.627,0.123c-0.542,0-1.168-0.044-1.544-0.123V156.341z"/>
			<path fill="#231F20" d="M401.848,156.426v28.408c-0.541,0.079-1.584,0.123-1.958,0.123c-0.418,0-1.461-0.044-2.005-0.123
				l-10.134-18.898c-1.085-2.042-1.96-3.877-2.835-5.757h-0.127c0.084,2.589,0.252,6.092,0.252,9.012v15.644
				c-0.585,0.079-1.046,0.123-1.504,0.123c-0.415,0-0.961-0.044-1.458-0.123v-28.493c0.497-0.082,1.543-0.125,1.876-0.125
				c0.458,0,1.458,0.043,2.001,0.125l10.137,18.898c1.086,2.041,2.002,4.088,2.918,5.878h0.127
				c-0.167-3.041-0.293-6.632-0.293-9.508v-13.309c0-1.414,0.293-2.085,1.672-2.085h1.083L401.848,156.426z"/>
			<path fill="#231F20" d="M421.666,177.404l-2.422,7.466c-0.375,0.087-0.915,0.126-1.418,0.126c-0.625,0-1.04-0.083-1.542-0.205
				l-0.085-0.126l9.552-28.324c0.458-0.082,1.293-0.125,1.836-0.125c0.501,0,1.379,0.043,1.753,0.125l9.551,28.324
				c-0.461,0.292-1.126,0.416-1.877,0.416c-1.043,0-1.502-0.335-1.919-1.667l-2.004-6.01c-0.665,0-2.669,0.042-2.919,0.042h-5.587
				C424.292,177.446,422.331,177.404,421.666,177.404z M422.581,174.696c0.628,0,2.172-0.043,2.42-0.043h4.798
				c0.206,0,1.709,0.043,2.418,0.043l-2.628-7.928c-0.791-2.457-1.626-5.089-2.126-6.963h-0.208
				c-0.418,1.624-1.046,3.835-1.42,4.961L422.581,174.696z"/>
			<path fill="#231F20" d="M445.691,156.341c0.794-0.125,1.752-0.125,2.172-0.125c0.498,0,1.331,0,2.04,0.125l4.798,14.641
				c0.502,1.419,1.627,5.464,1.711,6.092h0.206c0.128-0.628,1.213-4.673,1.711-6.092l4.798-14.641
				c0.878-0.125,1.586-0.125,2.044-0.125c0.418,0,1.291,0,2.169,0.125l2.208,28.45c-0.456,0.122-1.125,0.205-1.623,0.205
				c-0.543,0-1.003-0.039-1.463-0.126l-1.207-17.267c-0.124-1.918-0.252-5.507-0.335-7.885h-0.207l-6.592,20.647
				c-0.501,0.087-1.086,0.167-1.626,0.167c-0.543,0-1.128-0.08-1.544-0.167l-6.632-20.647h-0.208
				c-0.124,2.378-0.211,5.967-0.334,7.885l-1.169,17.267c-0.5,0.087-1.041,0.126-1.544,0.126c-0.54,0-1.165-0.083-1.583-0.205
				L445.691,156.341z"/>
			<path fill="#231F20" d="M494.163,183.371c-0.207,1.002-0.958,1.463-2.042,1.463h-13.14c-1.084,0-1.793-0.797-1.793-2.091v-26.148
				l0.249-0.254h16.101c0.085,0.504,0.085,0.921,0.085,1.294c0,0.335-0.044,0.958-0.209,1.462h-10.637c-0.667,0-1.625,0.043-2.546,0
				c0,1.082,0.043,1.5,0.043,2.583v7.385c0.915,0,1.836-0.043,2.503-0.043h8.634c0.083,0.504,0.126,1.046,0.126,1.376
				c0,0.378-0.043,0.92-0.126,1.38h-8.634c-0.667,0-1.588,0-2.503-0.043v8.799c0,0.584-0.043,1.045-0.043,1.588
				c0.71-0.045,1.543-0.083,2.588-0.083h11.429C494.248,182.326,494.248,182.911,494.163,183.371z"/>
			<path fill="#231F20" d="M512.936,172.064c1.253,0.422,2.21,1.836,2.796,3.381l2.169,5.63c0.415,1.046,0.833,2.215,1.794,2.962
				c-0.461,0.709-1.502,1.044-2.212,1.044c-1.291,0-1.751-0.751-2.294-2.083l-2.42-6.341c-0.79-2.172-1.793-3.84-4.585-3.84h-4.342
				v12.017c-0.456,0.079-1.042,0.123-1.626,0.123c-0.543,0-1.127-0.044-1.543-0.123v-28.239l0.249-0.254
				c2.92-0.039,5.756-0.125,8.425-0.125c5.799,0,9.053,3.13,9.053,8.263C518.399,168.231,516.316,171.068,512.936,172.064z
				 M503.842,170.147c1.752-0.08,3.881-0.08,5.467-0.08c4.587,0,5.757-2.964,5.757-5.589c0-2.713-1.17-5.593-5.757-5.593
				c-1.378,0-3.922,0-5.467-0.038V170.147z"/>
			<path fill="#231F20" d="M525.535,156.341c0.375-0.082,0.998-0.125,1.542-0.125c0.581,0,1.167,0.043,1.628,0.125v28.493
				c-0.461,0.079-1.047,0.123-1.628,0.123c-0.544,0-1.167-0.044-1.542-0.123V156.341z"/>
			<path fill="#231F20" d="M546.349,158.513c-4.838,0-7.593,4.212-7.593,12.22c0,7.424,2.879,11.805,7.552,11.805
				c2.459,0,4.963-1.001,7.632-3.298c0.794,0.46,1.504,1.338,1.752,2.091c-2.209,2.252-5.756,4.001-9.845,4.001
				c-7.547,0-10.47-7.088-10.47-14.599c0-10.304,5.088-14.892,10.972-14.892c6.049,0,9.718,4.003,9.718,7.843
				c0,0.92-0.332,1.878-1.793,1.878c-0.542,0-0.834-0.044-1.419-0.212C552.939,162.39,551.271,158.513,546.349,158.513z"/>
			<path fill="#231F20" d="M564.58,177.404l-2.42,7.466c-0.377,0.087-0.918,0.126-1.417,0.126c-0.628,0-1.045-0.083-1.545-0.205
				l-0.085-0.126l9.551-28.324c0.461-0.082,1.295-0.125,1.837-0.125c0.503,0,1.378,0.043,1.754,0.125l9.552,28.324
				c-0.461,0.292-1.126,0.416-1.878,0.416c-1.045,0-1.501-0.335-1.917-1.667l-2.004-6.01c-0.665,0-2.669,0.042-2.919,0.042h-5.59
				C567.208,177.446,565.247,177.404,564.58,177.404z M565.497,174.696c0.626,0,2.169-0.043,2.421-0.043h4.795
				c0.208,0,1.708,0.043,2.419,0.043l-2.627-7.928c-0.793-2.457-1.628-5.089-2.129-6.963h-0.208
				c-0.416,1.624-1.043,3.835-1.416,4.961L565.497,174.696z"/>
		</g>
		<g>
			<g>
				<rect x="307.548" y="125.27" fill="#231F20" width="271.595" height="5.642"/>
			</g>
		</g>
	</g>
	<g>
		<g>
			<g>
				<path fill="#003E22" d="M273.496,116.355c0,62.765-50.883,113.652-113.647,113.652c-62.767,0-113.652-50.888-113.652-113.652
					c0-62.768,50.886-113.651,113.652-113.651C222.613,2.705,273.496,53.588,273.496,116.355z"/>
			</g>
		</g>
		<g>
			<g>
				<path fill="#F9EC31" d="M219.558,132.982c-2.249-5.551-7.494-9.662-16.497-12.95c-11.45-4.171-13.758-7.511-13.729-8.071
					c0.436-0.637,4.74-1.405,13.98,1.964c3.613,1.319,6.589,2.622,9.216,3.772c5.793,2.545,9.629,4.222,13.247,2.679
					c5.42-2.323,8.847-10.894,18.493-37.33c-0.528-1.336-1.085-2.655-1.67-3.953c-8.771,24.043-13.561,36.716-17.973,38.595
					c-2.453,1.049-5.638-0.346-10.924-2.666c-2.662-1.164-5.687-2.491-9.387-3.844c-8.119-2.957-14.407-3.517-16.819-1.495
					c-0.834,0.699-1.205,1.716-1.016,2.785c0.75,4.304,10.085,8.309,15.583,10.308c8.172,2.982,12.868,6.571,14.79,11.302
					c3.834,9.441-3.288,24.179-14.062,46.483c-2.914,6.014-6.202,12.824-9.587,20.196c1.354-0.538,2.687-1.098,4.004-1.697
					c2.899-6.22,5.701-12.039,8.208-17.233C216.536,158.822,223.874,143.621,219.558,132.982z"/>
			</g>
			<g>
				<path fill="#F9EC31" d="M100.262,134.409c9.351,4.99,15.686,6.135,17.369,3.135c1.663-2.961-2.56-7.913-11.022-12.902
					c-12.414-7.317-18.304-13.255-19.706-19.845c-2.457-11.574,8.677-27.184,28.895-55.513c3.88-5.446,8.261-11.583,12.9-18.197
					c-1.687,0.616-3.341,1.296-4.98,2.008c-3.676,5.209-7.146,10.076-10.294,14.495c-21.375,29.95-32.102,44.984-29.377,57.815
					c1.587,7.471,7.891,13.975,21.08,21.753c8.074,4.765,10.118,8.249,9.979,8.929c-0.403,0.374-4.049,0.776-13.467-4.25
					c-14.761-7.88-21.298-4.061-29.484,7.932c0.331,1.23,0.674,2.462,1.052,3.681C82.077,129.852,87.119,127.402,100.262,134.409z"
					/>
			</g>
		</g>
		<g>
			<g>
				<path fill="#F9EC31" d="M159.939,222.494l-0.8-0.007l0.05-10.216h0.75c2.065,0,4.167-0.068,6.236-0.201l0.665,10.198
					C164.548,222.416,162.231,222.494,159.939,222.494z M154.496,222.354c-2.56-0.13-5.143-0.358-7.685-0.671l1.255-10.145
					c2.305,0.286,4.644,0.492,6.952,0.607L154.496,222.354z M171.454,221.865l-1.114-10.155c2.312-0.255,4.631-0.595,6.901-1.012
					l1.845,10.055C176.575,221.209,174.013,221.587,171.454,221.865z M142.226,221.008c-2.506-0.417-5.043-0.945-7.553-1.548
					l2.421-9.932c2.267,0.547,4.568,1.022,6.834,1.403L142.226,221.008z M183.625,219.81l-2.286-9.96
					c2.257-0.518,4.519-1.121,6.729-1.807l3.015,9.763C188.633,218.563,186.126,219.238,183.625,219.81z M130.209,218.262
					c-2.461-0.714-4.924-1.53-7.328-2.417l3.549-9.584c2.175,0.811,4.399,1.544,6.623,2.185L130.209,218.262z M195.482,216.35
					l-3.447-9.625c2.188-0.781,4.369-1.654,6.478-2.588l4.134,9.351C200.308,214.519,197.897,215.477,195.482,216.35z
					 M118.58,214.139c-2.375-0.996-4.73-2.089-7.005-3.252l4.646-9.102c2.054,1.049,4.179,2.031,6.322,2.936L118.58,214.139z
					 M206.843,211.523l-4.541-9.159c2.085-1.032,4.146-2.146,6.139-3.317l5.186,8.805
					C211.422,209.146,209.141,210.383,206.843,211.523z M107.499,208.7c-2.231-1.265-4.443-2.621-6.568-4.039l5.67-8.503
					c1.919,1.273,3.917,2.506,5.936,3.652L107.499,208.7z M217.557,205.418l-5.55-8.58c0.383-0.244,0.752-0.494,1.131-0.741
					c1.563-1.05,3.106-2.149,4.582-3.265l6.159,8.157c-1.629,1.231-3.336,2.444-5.061,3.604
					C218.4,204.875,217.978,205.148,217.557,205.418z M97.137,202.01c-2.066-1.516-4.1-3.119-6.053-4.782l6.621-7.784
					c1.761,1.5,3.602,2.951,5.464,4.318L97.137,202.01z M227.511,198.122l-6.503-7.884c1.78-1.466,3.529-3.02,5.209-4.629
					l7.062,7.391C231.421,194.776,229.48,196.497,227.511,198.122z M87.629,194.154c-1.872-1.745-3.708-3.58-5.459-5.463
					l7.489-6.951c1.58,1.697,3.242,3.356,4.929,4.928L87.629,194.154z M236.55,189.731l-7.376-7.07
					c1.601-1.667,3.154-3.417,4.629-5.204l7.874,6.513C240.044,185.945,238.318,187.887,236.55,189.731z M79.095,185.234
					c-1.65-1.944-3.263-3.982-4.782-6.047l8.238-6.049c1.374,1.874,2.832,3.715,4.328,5.474L79.095,185.234z M244.551,180.342
					l-8.154-6.163c1.39-1.84,2.731-3.758,3.993-5.702l8.583,5.544C247.578,176.177,246.088,178.3,244.551,180.342z M71.693,175.445
					l-0.053-0.078c-1.443-2.157-2.794-4.338-4.04-6.532l8.88-5.057c1.126,1.98,2.344,3.953,3.623,5.866L71.693,175.445z
					 M251.395,170.076l-8.816-5.166c1.17-1.994,2.282-4.063,3.305-6.14l9.171,4.509
					C253.923,165.585,252.694,167.871,251.395,170.076z M65.393,164.767c-1.172-2.277-2.274-4.631-3.276-6.984l9.406-4.001
					c0.902,2.132,1.9,4.256,2.954,6.317L65.393,164.767z M257.007,159.087l-9.363-4.103c0.931-2.128,1.793-4.309,2.571-6.484
					l9.626,3.417C258.986,154.328,258.03,156.743,257.007,159.087z M60.4,153.475c-0.894-2.392-1.719-4.854-2.442-7.322l9.811-2.871
					c0.654,2.224,1.39,4.447,2.205,6.612L60.4,153.475z M261.298,147.523l-9.771-2.996c0.681-2.215,1.284-4.48,1.803-6.738
					l9.964,2.281C262.717,142.562,262.046,145.072,261.298,147.523z M56.754,141.682c-0.609-2.488-1.136-5.035-1.563-7.56
					l10.074-1.706c0.388,2.281,0.863,4.581,1.414,6.824L56.754,141.682z M264.225,135.535l-10.053-1.85
					c0.422-2.275,0.76-4.595,1.014-6.901l10.163,1.122C265.068,130.45,264.692,133.02,264.225,135.535z M54.521,129.54
					c-0.316-2.545-0.544-5.133-0.675-7.687l10.208-0.519c0.117,2.31,0.321,4.644,0.611,6.94L54.521,129.54z M265.751,123.295
					l-10.194-0.68c0.138-2.104,0.208-4.242,0.208-6.351v-0.618l10.216-0.072l0.005,0.69
					C265.986,118.599,265.907,120.961,265.751,123.295z M53.711,117.229v-0.776c0-2.311,0.074-4.64,0.226-6.945l10.196,0.676
					c-0.134,2.075-0.204,4.179-0.204,6.269l0.005,0.694L53.711,117.229z M255.644,111.463c-0.11-2.31-0.316-4.645-0.604-6.945
					l10.146-1.256c0.313,2.544,0.537,5.133,0.665,7.692L255.644,111.463z M64.499,106.008l-10.16-1.106
					c0.278-2.55,0.651-5.119,1.112-7.635l10.053,1.836C65.086,101.378,64.749,103.703,64.499,106.008z M254.436,100.377
					c-0.382-2.281-0.854-4.582-1.405-6.829l9.926-2.43c0.614,2.497,1.136,5.037,1.563,7.568L254.436,100.377z M66.344,95.004
					l-9.963-2.271c0.572-2.497,1.241-5.003,1.989-7.452l9.772,2.985C67.465,90.48,66.864,92.747,66.344,95.004z M251.948,89.507
					c-0.646-2.214-1.384-4.446-2.195-6.613l9.576-3.572c0.896,2.397,1.715,4.871,2.431,7.324L251.948,89.507z M69.455,84.293
					l-9.638-3.407c0.858-2.42,1.812-4.836,2.837-7.175l9.36,4.098C71.086,79.922,70.227,82.103,69.455,84.293z M248.202,79.007
					c-0.902-2.127-1.894-4.25-2.953-6.316l9.094-4.664c1.171,2.286,2.274,4.635,3.269,6.987L248.202,79.007z M73.777,74.012
					l-9.175-4.5c1.129-2.31,2.36-4.59,3.647-6.797l8.821,5.158C75.906,69.868,74.794,71.933,73.777,74.012z M243.258,69.005
					c-1.144-2.003-2.373-4.001-3.67-5.937l8.395-5.833l0.118,0.173c1.415,2.121,2.779,4.333,4.042,6.547L243.258,69.005z
					 M79.255,64.309l-8.583-5.538c1.39-2.154,2.874-4.282,4.415-6.326l8.165,6.154C81.854,60.449,80.512,62.368,79.255,64.309z
					 M237.096,59.507c-1.38-1.875-2.837-3.715-4.332-5.469l7.772-6.63c1.657,1.941,3.269,3.976,4.788,6.046L237.096,59.507z
					 M85.836,55.32l-7.884-6.503c1.63-1.977,3.354-3.919,5.128-5.769l7.386,7.065C88.86,51.786,87.305,53.538,85.836,55.32z
					 M229.979,50.916c-1.582-1.701-3.24-3.359-4.932-4.927l6.949-7.49c1.879,1.74,3.715,3.575,5.464,5.451L229.979,50.916z
					 M93.418,47.156l-7.069-7.378c1.845-1.768,3.786-3.497,5.763-5.13l6.515,7.872C96.84,44,95.086,45.56,93.418,47.156z
					 M221.923,43.216c-1.762-1.5-3.604-2.95-5.469-4.318l6.026-8.249c2.068,1.512,4.105,3.118,6.059,4.779L221.923,43.216z
					 M101.903,39.924l-6.161-8.15c1.663-1.262,3.393-2.49,5.135-3.659c0.39-0.257,0.784-0.518,1.182-0.772l5.564,8.574
					c-0.359,0.23-0.712,0.46-1.062,0.699C104.978,37.669,103.413,38.783,101.903,39.924z M213.025,36.51
					c-1.92-1.278-3.918-2.504-5.938-3.646l5.025-8.899c2.236,1.265,4.447,2.621,6.576,4.04L213.025,36.51z M111.182,33.71
					l-5.192-8.806c2.209-1.304,4.495-2.538,6.784-3.677l4.541,9.157C115.244,31.41,113.183,32.529,111.182,33.71z M203.399,30.89
					c-2.056-1.049-4.184-2.032-6.321-2.933l3.954-9.422c2.367,0.997,4.721,2.087,6.999,3.242L203.399,30.89z M121.105,28.606
					l-4.143-9.346c2.351-1.038,4.762-2.006,7.172-2.869l3.441,9.624C125.399,26.795,123.221,27.667,121.105,28.606z M193.181,26.423
					c-2.166-0.801-4.395-1.536-6.617-2.181l2.836-9.815c2.466,0.711,4.932,1.521,7.331,2.411L193.181,26.423z M131.544,24.691
					l-3.017-9.765c2.446-0.752,4.947-1.429,7.45-2.008l2.297,9.962C136.02,23.396,133.753,24.008,131.544,24.691z M182.514,23.167
					c-2.244-0.544-4.544-1.016-6.83-1.399l1.686-10.083c2.536,0.429,5.081,0.951,7.561,1.555L182.514,23.167z M142.37,22.031
					l-1.854-10.047c2.522-0.473,5.09-0.846,7.634-1.129l1.118,10.159C146.966,21.267,144.651,21.609,142.37,22.031z M171.538,21.164
					c-2.296-0.288-4.63-0.486-6.945-0.602l0.514-10.208c2.564,0.13,5.146,0.355,7.687,0.667L171.538,21.164z M153.437,20.644
					l-0.672-10.192c2.311-0.155,4.669-0.232,6.991-0.232l0.716,0.003l-0.062,10.22h-0.654
					C157.654,20.442,155.531,20.509,153.437,20.644z"/>
			</g>
		</g>
		<g>
			<g>
				<path fill="#ED3258" d="M128.974,130.964l-0.872-0.27C128.39,130.797,128.683,130.873,128.974,130.964z"/>
			</g>
			<g>
				<path fill="#F9EC31" d="M224.803,63.183c-1.217-2.888-1.471-6.106-0.675-9.18l-2.832-0.724
					c-0.906,3.532-0.677,7.215,0.622,10.561c-2.793,0.898-5.358,2.519-7.419,4.777l-0.459-0.489c-1.18-1.26-2.986-1.707-4.615-1.141
					l-22.725,7.778c-1.39,0.475-2.452,1.62-2.82,3.043c-0.369,1.428,0,2.938,0.987,4.031l0.31,0.344l12.262-2.175l-4.783,10.946
					c-0.801-0.834-1.605-1.692-2.42-2.588l-1.913-2.123c-4.488,3.14-6.401,2.411-7.798,1.309c-0.335-0.259-0.647-0.494-0.978-0.748
					l-11.504,4.534l2.428-11.257c-0.496-0.346-0.988-0.681-1.477-1.016l-11.33,5.329l2.08-11.09
					c-11.948-6.599-21.298-8.157-30.404-5.502l0.795,11.292l-10.251-6.676c-1.2,0.877-2.348,1.835-3.432,2.88l4.903,10.294
					l-11.297-1.903c-0.742,1.356-1.404,2.756-1.96,4.199l8.493,8.075l-10.673,2.694c-0.249,9.93,4.333,19.367,13.204,26.958
					c1.591,1.357,3.297,2.459,5.075,3.38l8.38-8.565l2.37,11.887c0.865,0.124,1.734,0.224,2.61,0.307l6.331-10.515l4.843,10.534
					c0.824-0.054,1.644-0.119,2.458-0.193l5.199-11.338l6.169,10.093c0.017,0,0.034-0.006,0.048-0.006
					c7.663-0.837,13.443,3.624,16.31,9.405l11.699,2.847l-9.957,8.503c-0.081,0.478-0.189,0.966-0.324,1.461l6.096,10.337
					l-13.51-0.537l-1.524,11.848l-9.662-8.066c-1.491-0.009-2.984-0.248-4.467-0.681l-11.303,6.239l0.958-11.746
					c-0.462-0.335-0.918-0.68-1.373-1.029l-11.752,4.045l3.341-11.057c-4.462-3.781-9.609-5.378-14.901-4.61
					c-5.269,0.766-10.131,3.825-14.272,8.846l4.808,11.336l-11.352-2.147l-1.647,2.367l4.889,11.561l-11.162-2.55l-2.31,3.316
					l10.201,8.344l14.864-21.346l0.129-0.197c2.442-3.786,5.258-6.168,7.738-6.522c0.558-0.086,2.255-0.33,4.589,1.677l1.246,1.074
					c9.283,8.023,23.304,20.148,39.746,15.067c20.292-6.273,26.527-22.783,23.716-36.37c-3.245-15.615-17.107-26.141-32.247-24.478
					c-1.175,0.135-2.382,0.274-3.619,0.423c-10.361,1.217-23.263,2.736-29.892-2.934c-6.628-5.664-9.518-12.306-8.368-19.193
					c1.27-7.534,6.928-13.443,11.867-15.384c6.686-2.627,15.379-3.494,41.246,16.84c9.101,7.151,18.456,2.833,24.715-1.802
					l-1.917-2.127c-0.846-0.958-1.706-1.95-2.58-2.967l12.621-2.243l-4.627,10.573l1.529,1.697c0.484,0.547,1.087,0.944,1.75,1.185
					c0.673,0.244,1.401,0.325,2.125,0.225c1.447-0.211,2.698-1.126,3.321-2.445l10.41-21.681c0.782-1.63,0.479-3.571-0.762-4.893
					l-2.49-2.651c4.153-4.692,10.91-6.169,16.724-3.489l1.229-2.649C231.338,63.171,227.995,62.735,224.803,63.183z"/>
			</g>
		</g>
	</g>
</g>
</svg>
