<?xml version="1.0" encoding="UTF-8" standalone="no"?>
<!-- Created with Inkscape (http://www.inkscape.org/) -->

<svg
   xmlns:dc="http://purl.org/dc/elements/1.1/"
   xmlns:cc="http://creativecommons.org/ns#"
   xmlns:rdf="http://www.w3.org/1999/02/22-rdf-syntax-ns#"
   xmlns:svg="http://www.w3.org/2000/svg"
   xmlns="http://www.w3.org/2000/svg"
   xmlns:sodipodi="http://sodipodi.sourceforge.net/DTD/sodipodi-0.dtd"
   xmlns:inkscape="http://www.inkscape.org/namespaces/inkscape"
   width="148mm"
   height="210mm"
   viewBox="0 0 524.40945 744.09448"
   id="svg5762"
   version="1.1"
   inkscape:version="0.91 r13725"
   sodipodi:docname="capa.svg"
   inkscape:export-filename="/home/raniere/scipyla/scipyla2016/program/capa.png"
   inkscape:export-xdpi="120"
   inkscape:export-ydpi="120">
  <defs
     id="defs5764" />
  <sodipodi:namedview
     id="base"
     pagecolor="#ffffff"
     bordercolor="#666666"
     borderopacity="1.0"
     inkscape:pageopacity="0.0"
     inkscape:pageshadow="2"
     inkscape:zoom="0.7"
     inkscape:cx="249.33978"
     inkscape:cy="348.59582"
     inkscape:document-units="px"
     inkscape:current-layer="layer1"
     showgrid="true"
     inkscape:window-width="1362"
     inkscape:window-height="729"
     inkscape:window-x="0"
     inkscape:window-y="18"
     inkscape:window-maximized="0"
     objecttolerance="20"
     guidetolerance="10000">
    <inkscape:grid
       type="xygrid"
       id="grid6491" />
  </sodipodi:namedview>
  <metadata
     id="metadata5767">
    <rdf:RDF>
      <cc:Work
         rdf:about="">
        <dc:format>image/svg+xml</dc:format>
        <dc:type
           rdf:resource="http://purl.org/dc/dcmitype/StillImage" />
        <dc:title />
      </cc:Work>
    </rdf:RDF>
  </metadata>
  <g
     inkscape:label="Layer 1"
     inkscape:groupmode="layer"
     id="layer1"
     transform="translate(0,-308.26772)">
    <rect
       style="opacity:0.8;fill:#a5dce7;fill-opacity:1;fill-rule:nonzero;stroke:none;stroke-width:12;stroke-linecap:square;stroke-linejoin:round;stroke-miterlimit:4;stroke-dasharray:none;stroke-dashoffset:0;stroke-opacity:1"
       id="rect4155"
       width="522.5744"
       height="744.46344"
       x="1.8237756"
       y="307.89877" />
    <path
       inkscape:connector-curvature="0"
       id="path4891"
       d="m 419.93776,1051.1018 c -4.02114,-1.4876 -4.18062,-3.3375 -3.19127,-37.0182 0.51334,-17.47546 0.80497,-31.90863 0.6481,-32.07385 -0.33612,-0.35398 -5.3539,0.14429 -111.55304,11.07741 -15.46786,1.59248 -38.45874,3.94617 -51.09083,5.23063 -41.80016,4.25031 -94.49558,11.20031 -163.786808,21.60231 l -17.076453,2.5636 -0.266309,8.974 c -0.21466,7.2337 -0.53902,8.9742 -1.672473,8.9742 -1.128312,0 -1.459263,-1.7007 -1.674861,-8.6069 l -0.268685,-8.6069 -3.481095,0.529 c -1.91462,0.291 -5.168512,0.8046 -7.230887,1.1413 l -3.749792,0.612 0,7.6147 c 0,8.0237 -0.421642,9.3014 -2.771898,8.3995 -1.133878,-0.4351 -1.446608,-2.1463 -1.446608,-7.9151 l 0,-7.3601 -25.076687,4.0305 c -26.86640149,4.3183 -36.759099,4.78 -14.296062,0.6672 1.288986,-0.236 10.555186,-2.2249 20.591574,-4.4196 l 18.247946,-3.9906 0.756268,-3.64 c 0.415952,-2.0019 0.641392,-10.9721 0.500978,-19.93369 l -0.255291,-16.29379 -9.178548,13.6801 c -5.370129,8.00378 -8.905748,14.15478 -8.521086,14.82448 0.361602,0.6294 0.310141,0.8296 -0.114427,0.4448 -0.424506,-0.3848 -2.627932,2.0671 -4.896501,5.4488 -3.890269,5.799 -6.74608,7.5115 -6.02634,3.6136 0.178206,-0.9651 3.641381,-6.8272 7.695949,-13.027 4.054568,-6.1997 10.572594,-16.28145 14.484497,-22.40378 l 7.112559,-11.13142 0.394429,-12.30475 0.394442,-12.30473 -2.313052,5.04182 c -1.272178,2.773 -2.313051,5.35717 -2.313051,5.74262 0,1.24896 -13.652419,27.34772 -20.103777,38.43151 -6.848751,11.76663 -15.763742,24.16663 -17.988315,25.02023 -0.7736768,0.2969 -1.8368852,0.1101 -2.3626742,-0.4162 -0.6496954,-0.6496 0.5867167,-2.8671 3.8589042,-6.921 10.110646,-12.5256 38.173992,-61.29891 41.324387,-71.82056 l 1.192917,-3.98415 8.765485,0 c 7.945074,0 9.005994,0.21269 11.335328,2.27255 5.776851,5.10858 21.476892,17.41113 23.66241,18.5419 1.288986,0.6669 2.554537,1.47917 2.812337,1.80504 0.95209,1.2035 18.51835,9.22851 25.77977,11.77728 7.21726,2.53328 8.09949,2.62431 23.43617,2.41836 53.13911,-0.71352 96.20695,-13.68323 152.33504,-45.87505 13.38366,-7.6761 42.18508,-27.75702 42.18508,-29.41229 0,-0.4953 0.41704,-0.90054 0.92673,-0.90054 0.50971,0 1.8381,-0.73824 2.95198,-1.64054 7.98422,-6.46754 16.21197,-13.69606 21.23338,-18.65463 3.24194,-3.20138 6.24772,-5.95599 6.67953,-6.12137 0.43181,-0.16539 10.76655,-10.00326 22.96612,-21.86195 12.19958,-11.8587 22.81875,-21.70156 23.59816,-21.87304 0.77941,-0.17147 1.92417,0.0952 2.54389,0.59244 0.61972,0.49733 5.29926,1.20876 10.39898,1.58098 10.05792,0.7341 10.82211,2.31737 1.13063,2.34251 l -5.53376,0.0143 2.25269,1.9678 c 2.06743,1.80595 10.42628,6.46922 11.596,6.46922 0.27493,0 0.49989,-2.32017 0.49989,-5.15595 0,-2.83578 0.35316,-5.15596 0.78483,-5.15596 0.43166,0 3.06822,1.63198 5.85904,3.62663 5.8176,4.15794 48.47448,25.73651 56.07743,28.36753 2.78759,0.96465 6.33817,1.75391 7.89017,1.75391 1.552,0 2.52568,0.29615 2.16372,0.6581 -1.25791,1.2579 -7.67689,0.23738 -16.89121,-2.68545 -10.35501,-3.28467 -46.21843,-20.62705 -51.00199,-24.6629 -1.69746,-1.43214 -3.2664,-2.42377 -3.48652,-2.20365 -0.22014,0.22013 -0.14597,1.96718 0.16482,3.88234 0.56337,3.47162 0.62122,3.51038 19.21661,12.87878 10.25834,5.16818 19.12602,9.10341 19.70599,8.74499 0.59293,-0.36647 0.79626,-0.23396 0.46456,0.30275 -1.13544,1.83718 21.42639,10.94669 30.76719,12.42248 l 4.68723,0.74057 -5.09616,0.11692 c -9.71749,0.22302 -28.3777,-6.25965 -52.82025,-18.35009 -8.65223,-4.27979 -15.92109,-7.78145 -16.15302,-7.78145 -0.23193,0 -0.2109,1.79287 0.0468,3.98415 0.25764,2.19128 0.86974,10.3119 1.36024,18.04584 0.49051,7.73393 2.16586,31.5685 3.723,52.96572 1.55714,21.39721 2.83529,39.47995 2.84033,40.18384 0.008,0.98764 1.13278,1.15528 4.93076,0.73427 47.05658,-5.21619 47.5754,-5.21259 47.5754,0.32953 0,3.16197 -1.30803,4.32594 -5.80581,5.16641 l -3.4622,0.64696 2.04446,3.11888 2.04448,3.11888 1.83635,-3.21323 c 1.96742,-3.44259 4.28017,-4.27808 4.28017,-1.54622 0,0.91683 -0.97629,3.09178 -2.16953,4.83319 -2.16326,3.15708 -2.16473,3.1808 -0.5074,8.20455 0.91418,2.77101 2.3123,5.68846 3.10698,6.48307 0.79466,0.79461 1.44484,2.01742 1.44484,2.71711 0,3.37699 -2.3699,3.86179 -27.31708,5.58799 -13.59117,0.9406 -24.83465,1.8085 -24.98553,1.9289 -0.38497,0.3072 2.69732,41.1492 3.13895,41.5933 0.19859,0.1995 -0.49892,1.5705 -1.54998,3.0466 -3.54779,4.9824 -7.60522,2.5097 -8.86836,-5.4045 -0.52629,-3.2975 -0.89819,-3.7965 -2.51449,-3.3738 -1.25468,0.328 -2.41741,-0.1941 -3.43444,-1.5423 -1.44405,-1.9145 -2.03535,-2.0003 -9.7197,-1.4096 l -8.1821,0.6289 -0.006,4.3146 c -0.006,4.6039 -2.24844,8.9331 -4.71133,9.0979 -0.79005,0.054 -2.37542,-0.2511 -3.52304,-0.6757 z m 31.6767,-14.4197 c 0,-0.7733 -0.61953,-1.4061 -1.37675,-1.4061 -0.83863,0 -1.16583,0.5496 -0.83716,1.4061 0.2968,0.7734 0.91633,1.4061 1.37676,1.4061 0.46043,0 0.83715,-0.6327 0.83715,-1.4061 z m -1.32949,-3.2811 c 0.93313,0 1.32949,-1.1545 1.32949,-3.8724 l 0,-3.8725 -3.51543,0.5811 c -1.93347,0.3196 -7.20662,0.5857 -11.71807,0.5913 l -8.20266,0.012 0,3.2472 0,3.2471 9.14011,0.2978 c 5.02705,0.1638 9.70191,0.1791 10.38858,0.034 0.68667,-0.1452 1.84674,-0.2639 2.57798,-0.2639 z m 1.3106,-11.015 c -0.01,-0.9023 -2.39475,-4.0959 -5.29855,-7.0967 l -5.27967,-5.4564 -5.92517,5.8725 c -3.25884,3.2299 -5.69165,6.1071 -5.40623,6.3937 0.55603,0.5585 10.17376,1.5381 17.47565,1.7799 3.67838,0.1213 4.44957,-0.1378 4.43397,-1.493 z m -389.958806,-2.1397 c 2.32018,-0.5073 5.167675,-1.1377 6.327765,-1.4012 1.879116,-0.4267 2.109259,-1.0515 2.109259,-5.7265 0,-4.9842 -0.105798,-5.219 -2.109259,-4.6821 -1.16009,0.3109 -4.534899,0.571 -7.499572,0.5782 l -5.390313,0.013 0,6.0934 c 0,6.712 -0.15232,6.5931 6.56212,5.1254 z m 371.931856,-6.1129 c 2.70688,-3.294 4.90324,-6.3177 4.88082,-6.7193 -0.0224,-0.4017 -2.51,-3.4455 -5.52792,-6.7641 l -5.48713,-6.03377 -0.1372,12.83037 c -0.0754,7.0566 0.19738,12.7954 0.60631,12.753 0.40894,-0.043 2.95824,-2.7722 5.66512,-6.0662 z m -352.245481,1.9103 c 3.351374,-0.7661 6.992154,-1.599 8.090641,-1.8508 3.00802,-0.6895 3.242176,-3.5833 0.56656,-7.0021 -2.576011,-3.2916 -3.928626,-2.6368 -3.955613,1.9146 -0.02389,4.0308 -1.067323,3.8393 -4.36636,-0.8008 -1.731162,-2.435 -3.200293,-4.1121 -3.264747,-3.7271 -0.0644,0.3851 -0.169915,1.0868 -0.234369,1.5595 -0.0644,0.4726 -0.43356,1.1756 -0.82026,1.5623 -0.386689,0.3867 -0.703083,1.4517 -0.703083,2.3665 0,0.9147 -0.416764,1.9208 -0.926133,2.2356 -1.09301,0.6756 -0.203818,-7.5472 1.088995,-10.0705 0.666253,-1.3003 0.44494,-1.6406 -1.067323,-1.6406 -1.777558,0 -1.90788,0.5764 -1.90788,8.4371 0,4.6404 0.316394,8.4307 0.703082,8.4231 0.386701,-0.013 3.445117,-0.6407 6.79649,-1.4068 z m 369.655131,-7.2383 -0.57154,-8.0986 -2.02728,1.5291 c -1.11501,0.8411 -2.73038,2.4613 -3.58969,3.6006 -1.50499,1.9951 -1.42135,2.2484 2.27608,6.8921 2.11117,2.6516 3.98371,4.6757 4.16123,4.4983 0.17751,-0.1776 0.0655,-3.9672 -0.2488,-8.4215 z m -350.66412,3.0814 c 5.90715,-1.2264 5.83843,-1.172 6.72755,-5.3214 0.44222,-2.0638 0.19752,-3.3611 -0.82722,-4.386 -0.80035,-0.8003 -1.45518,-1.7263 -1.45518,-2.0578 0,-0.33139 -0.62653,-1.22917 -1.3923,-1.99489 -1.23143,-1.23144 -1.8168,-0.73546 -5.066415,4.29229 -2.341189,3.6223 -3.496877,6.3623 -3.185586,7.5526 0.339142,1.297 0.02514,1.8681 -1.026991,1.8681 -0.833542,0 -1.515514,0.467 -1.515514,1.0378 0,0.5707 0.538144,0.8312 1.195881,0.5788 0.657724,-0.2524 3.603325,-0.9587 6.545775,-1.5695 z m 11.00728,-2.7446 c 0,-1.2293 -2.42329,-3.0037 -3.13296,-2.294 -1.2834,1.2833 -0.5434,3.1166 1.25806,3.1166 1.03119,0 1.8749,-0.3701 1.8749,-0.8226 z m 6.55273,-1.0522 c 0.42609,0 1.60208,-2.45 2.6133,-5.4444 l 1.83859,-5.44432 -3.44832,-4.04396 -3.44833,-4.04396 -2.64526,5.89443 c -2.54344,5.66761 -2.58418,5.98761 -1.05873,8.31641 0.87256,1.3322 1.82685,3.1842 2.12063,4.1157 0.31573,1.0011 1.09006,1.4802 1.89376,1.1718 0.74782,-0.287 1.70828,-0.5217 2.13436,-0.5217 z m -47.800372,-2.8868 c 0,-1.6453 -0.407711,-1.8599 -2.612926,-1.3755 -2.349205,0.516 -2.737332,0.2298 -3.845473,-2.8347 l -1.23256,-3.40854 -3.652698,3.56674 c -2.008989,1.9616 -3.336942,3.8783 -2.951017,4.2591 0.385938,0.3808 2.810953,0.8525 5.388925,1.0483 2.577984,0.1957 5.6364,0.432 6.79649,0.5249 1.565324,0.1254 2.109259,-0.3337 2.109259,-1.7803 z m 56.567382,0.7673 c 1.50845,-1.103 1.46838,-1.3825 -0.60006,-4.1861 l -2.21646,-3.00427 -1.56438,3.28047 c -0.86041,1.8043 -1.56438,3.6882 -1.56438,4.1863 0,1.3033 4.04184,1.1155 5.94528,-0.2764 z m -42.331048,-6.15315 c -1.214352,-0.16733 -2.837727,-0.0625 -3.60749,0.23285 -1.15535,0.4433 -1.018838,1.0037 0.782268,3.2116 l 2.181855,2.6746 1.425635,-2.9073 c 1.381604,-2.8177 1.35743,-2.9169 -0.782268,-3.21175 z m 11.508585,1.60465 c 1.884594,-3.75213 2.081108,-4.66792 0.904836,-4.21646 -0.826438,0.31702 -3.153133,0.8405 -5.17045,1.16302 -2.017305,0.32265 -3.667833,0.77173 -3.667833,0.99796 0,0.53237 4.81234,6.84848 5.217887,6.84848 0.169477,0 1.39147,-2.1568 2.71556,-4.793 z m 46.704093,2.3079 c 1.89485,-0.5365 1.56719,-1.2162 -6.63375,-13.75903 l -4.18521,-6.40106 -1.79427,2.65122 c -3.46684,5.12259 -4.62427,8.76325 -3.34455,10.52017 5.83252,8.0071 6.63682,8.6202 10.53618,8.0298 2.06239,-0.3123 4.5021,-0.7808 5.4216,-1.0411 z m 308.13147,-13.82618 0.0228,-4.59327 -8.58104,0.60911 c -4.71958,0.33501 -9.99271,0.6091 -11.71809,0.6091 -3.66949,0 -3.94727,1.12053 -1.02779,4.14591 1.16009,1.20217 4.21851,4.97413 6.79649,8.38231 l 4.68723,6.19672 4.89884,-5.37835 c 4.49434,-4.93424 4.90073,-5.75749 4.9216,-9.97153 z m -380.095524,9.51482 c 0.313442,-1.67563 0.438024,-5.31404 0.276838,-8.08517 l -0.293083,-5.03859 -2.956182,4.1283 c -2.706293,3.77934 -2.847782,4.32409 -1.673748,6.44468 0.705333,1.27408 1.297377,3.05464 1.315648,3.95694 0.05915,2.9199 2.732417,1.7913 3.330527,-1.40616 z m 84.223104,2.45066 c 2.39214,-0.3279 4.34934,-1.0625 4.34934,-1.6325 0,-1.36391 -6.57887,-10.89574 -7.52023,-10.89574 -0.40137,0 -1.23054,2.21476 -1.84258,4.92161 -0.61205,2.70686 -1.31532,5.65983 -1.56285,6.56213 -0.50342,1.8352 0.10368,1.9316 6.57632,1.0445 z m 320.42931,-4.1967 c -0.16951,-0.71533 -0.85785,-1.93338 -1.52966,-2.70686 -0.67179,-0.77335 -1.51071,-2.35532 -1.86423,-3.51535 -0.35353,-1.16015 -0.93074,-2.10433 -1.2827,-2.0982 -0.35195,0 -2.26567,2.35282 -4.25271,5.21487 -1.98702,2.86205 -3.79063,5.02591 -4.00803,4.80844 -0.21739,-0.21735 1.11659,-3.07002 2.96442,-6.33913 3.58658,-6.34529 3.63657,-7.707 0.47113,-12.83538 -1.55971,-2.52687 -2.45764,-3.04669 -5.26289,-3.04669 l -3.38232,0 0.6003,9.1401 c 0.33016,5.02706 0.81553,10.64549 1.07859,12.48533 l 0.47827,3.34527 8.14902,-1.5758 c 5.94122,-1.14894 8.0655,-1.9283 7.84081,-2.8766 z m -301.26205,1.08387 c 0.85297,-0.0288 0.56829,-1.12627 -0.93745,-3.61502 -2.97187,-4.91199 -6.30999,-8.99607 -6.88392,-8.42223 -0.94556,0.9457 -2.6176,10.7783 -2.07379,12.19544 0.45163,1.17694 1.32209,1.30274 4.61344,0.66656 2.23122,-0.4312 4.608,-0.80237 5.28172,-0.82475 z m -83.279732,-3.43106 c 6.555931,-1.87848 10.833942,-4.05935 20.417682,-10.4082 7.58476,-5.02463 9.22893,-6.82546 6.23168,-6.82546 -5.41848,0 -31.240614,-10.85968 -37.870491,-15.92669 -1.804582,-1.37919 -3.808381,-2.81423 -4.452874,-3.18898 -0.922569,-0.53644 -1.171808,3.69941 -1.171808,19.91465 l 0,20.59607 5.859039,-1.34611 c 3.222478,-0.74034 8.166538,-2.00717 10.986772,-2.81528 z m 21.206962,-5.74186 c -0.20711,-0.2071 -1.84074,0.58326 -3.6303,1.75629 l -3.2537,2.13285 1.99273,3.04538 1.99274,3.04551 1.63756,-4.80168 c 0.90066,-2.64095 1.46809,-4.97126 1.26097,-5.17835 z m -52.849875,1.41601 c -3.232332,-5.50714 -3.951821,-5.20067 -3.951821,1.68327 l 0,6.38353 2.780014,-2.66346 c 2.746748,-2.63158 2.76078,-2.69623 1.171807,-5.40334 z m 89.738525,-6.24423 c 1.50072,-2.80413 4.05891,-2.4476 5.99858,0.83598 0.9137,1.54675 2.05928,2.81232 2.54574,2.81232 0.48643,0 0.89382,0.52737 0.90529,1.17179 0.0113,0.64454 0.84577,2.22651 1.85404,3.51547 l 1.8332,2.34357 0.0208,-3.92304 c 0.0113,-2.15773 0.41352,-4.956 0.89348,-6.21836 0.8136,-2.13994 0.63338,-2.33344 -2.66438,-2.86077 -6.94255,-1.11016 -25.65192,-1.83175 -25.28803,-0.97531 0.1994,0.4693 2.89365,4.61083 5.98722,9.20343 l 5.62468,8.35005 0.61581,-6.13942 c 0.33869,-3.37666 1.09177,-7.02872 1.67351,-8.11571 z m 333.77965,7.60861 2.1624,-6.35157 -2.71895,-3.92473 c -1.49544,-2.15862 -2.95414,-3.94076 -3.24158,-3.96033 -0.28745,-0.0196 -1.89545,1.91207 -3.57337,4.29254 l -3.05072,4.32813 1.56343,3.87454 c 0.8599,2.13097 1.93014,4.82369 2.37835,5.98384 0.4482,1.16003 1.60311,2.10921 2.56649,2.10921 1.32535,0 2.27776,-1.54557 3.91395,-6.35163 z M 188.955,996.85088 c 2.0667,-0.0125 1.97908,-0.28126 -1.85571,-5.74812 l -4.02482,-5.73773 -1.06873,2.6911 c -0.58781,1.48004 -1.36509,4.33309 -1.72729,6.34013 l -0.65853,3.64903 3.58297,-0.59202 c 1.97064,-0.32564 4.55908,-0.59664 5.75211,-0.60239 z m 299.92296,0 c 2.70636,-0.0163 2.66781,-1.64663 -0.12143,-5.13259 l -2.2213,-2.77626 -1.99255,4.12412 c -2.45834,5.08819 -2.45928,5.05318 0.11668,4.36286 1.1601,-0.31089 3.05842,-0.57101 4.21851,-0.57813 z M 197.40795,982.95581 c -2.00243,-0.1592 -5.08952,-0.1592 -6.86019,0 l -3.21938,0.28947 3.94725,6.37531 3.94724,6.3754 2.91295,-6.3754 2.91294,-6.37531 -3.64081,-0.28947 z m 301.5083,7.17726 2.77307,-5.29901 -2.77307,-5.66555 c -3.83601,-7.83717 -4.98175,-7.63333 -8.9118,1.58552 l -2.13508,5.00833 2.51786,5.13381 c 3.17384,6.47131 4.82017,6.32412 8.52902,-0.7631 z m -289.74719,2.9761 c 1.11423,-1.11275 0.0597,-4.92786 -2.09915,-7.59382 l -1.76974,-2.18553 -1.87167,3.70759 c -1.0294,2.03906 -2.18468,4.71827 -2.56726,5.95359 -0.67923,2.19312 -0.59918,2.23063 3.39514,1.59259 2.24991,-0.35953 4.46061,-1.02296 4.91268,-1.47442 z m 296.45059,0.91655 c 1.01807,0 0.95968,-0.65868 -0.29081,-3.281 -0.86055,-1.80457 -1.80288,-3.27786 -2.09409,-3.27386 -0.29121,0 -1.52716,1.7538 -2.74656,3.88852 l -2.2171,3.88126 3.03737,-0.6074 c 1.67054,-0.33415 3.61058,-0.60752 4.31119,-0.60752 z m -326.31953,-9.1401 c 0.45958,-1.97587 0.18817,-2.10924 -4.2926,-2.10924 -2.63077,0 -4.6426,0.31638 -4.47072,0.70308 0.17185,0.38669 1.78895,2.89096 3.59353,5.56499 l 3.28107,4.86196 0.69907,-3.45569 c 0.38447,-1.90074 0.91983,-4.40501 1.18965,-5.5651 z m -53.13706,1.74984 c 1.11782,-2.77559 2.0324,-5.41216 2.0324,-5.85899 0,-1.86395 -4.4682,-0.57145 -7.77215,2.24821 l -3.55365,3.03275 2.97269,3.58079 c 1.63497,1.9694 3.2687,3.23497 3.6305,2.8124 0.36179,-0.42269 1.57238,-3.0395 2.69021,-5.81516 z m 93.66779,5.86194 c 2.55516,-0.68469 2.67835,-2.74575 0.3731,-6.24192 -1.97691,-2.99818 -2.85304,-2.43655 -5.28724,3.38924 -1.41084,3.37666 -1.39758,3.44332 0.68304,3.43081 1.16702,-0.0125 3.07101,-0.26724 4.2311,-0.57813 z m 15.21056,-2.20913 c 1.12479,-0.60203 1.55727,-1.58085 1.23798,-2.80178 -0.26991,-1.03222 -0.92983,-1.60533 -1.46646,-1.27366 -0.55775,0.3447 -0.6962,0.15074 -0.32319,-0.4528 0.3589,-0.58069 -0.0744,-2.16523 -0.96287,-3.52122 l -1.61539,-2.46541 -2.59785,5.0169 c -1.42881,2.75935 -2.61775,5.33327 -2.64206,5.72007 -0.0648,1.02897 6.35019,0.85876 8.36985,-0.2221 z M 67.307593,987.22925 c 5.55056,-4.60808 4.958466,-5.39539 -4.030295,-5.35914 -7.465757,0.03 -7.666461,0.0877 -5.788107,1.65847 1.070212,0.89501 2.700678,2.7793 3.623248,4.18739 0.922569,1.40802 1.868186,2.56004 2.101355,2.56004 0.233181,0 2.075381,-1.37112 4.093799,-3.04676 z m 181.115367,1.63424 c 2.44907,-0.31752 4.45287,-0.75309 4.45287,-0.96781 0,-1.03225 -5.15703,-10.74399 -5.70518,-10.74399 -1.09363,0 -2.48841,2.1854 -4.93951,7.73946 l -2.38128,5.39587 2.06011,-0.42307 c 1.13307,-0.23273 4.06391,-0.68294 6.51299,-1.00046 z m -34.25336,-7.60797 c -0.22358,-0.22357 -1.49103,0.005 -2.81657,0.50982 -2.23959,0.85148 -2.33346,1.11929 -1.32707,3.78552 l 1.08302,2.86931 1.73355,-3.37913 c 0.95346,-1.85848 1.55064,-3.56197 1.32707,-3.78553 z m 11.56663,2.36745 c 2.20822,-4.32845 1.99076,-5.09207 -1.14751,-4.02947 -1.19894,0.40596 -2.6897,0.64093 -3.31279,0.52215 -0.81322,-0.155 -0.74872,0.52062 0.22858,2.39419 0.74881,1.43559 1.36408,3.13745 1.36726,3.78196 0.01,2.05884 0.85347,1.2731 2.86446,-2.66883 z m 40.32547,2.87021 c 1.01361,-0.54246 1.81328,-1.95517 1.81328,-3.20335 0,-3.28811 -3.6463,-11.30385 -4.67438,-10.27577 -0.7626,0.76261 -5.63754,12.87072 -5.63754,14.00222 0,0.85401 6.69545,0.44195 8.49864,-0.5231 z m -9.50418,-8.39102 c 1.55394,-3.81849 2.67136,-7.0967 2.48318,-7.2849 -0.55797,-0.55794 -9.09105,2.14843 -9.04316,2.86816 0.078,1.17402 3.31256,11.7815 3.52704,11.56704 0.11417,-0.11417 1.47898,-3.33181 3.03294,-7.1503 z m 26.19942,6.90064 c 2.31936,-0.46386 2.92952,-1.06172 2.92952,-2.87039 0,-2.56863 -4.41942,-12.48029 -5.56474,-12.48029 -0.68359,0 -4.23114,7.24685 -6.53945,13.35861 -0.95726,2.53456 -0.91285,2.57797 2.63575,2.57797 1.98516,0 4.92768,-0.26364 6.53892,-0.5859 z m -42.2577,-4.79657 c 1.05827,-2.44476 1.83669,-4.53247 1.72979,-4.63936 -0.10692,-0.10692 -1.92795,0.2457 -4.04683,0.78354 -3.802,0.96505 -3.83548,1.01049 -2.5535,3.46756 0.71444,1.36932 1.30158,3.017 1.30477,3.66149 0.0125,2.53518 1.73654,0.95256 3.56577,-3.27323 z m 210.16342,2.33578 c -0.0274,-4.01765 -0.72034,-4.18008 -12.64117,-2.96281 -12.92843,1.32012 -11.71808,1.1017 -11.71808,2.11476 0,0.43586 5.16767,1.20755 11.48371,1.71485 6.31605,0.5073 11.8001,0.99439 12.1868,1.08241 0.38671,0.088 0.69663,-0.78912 0.68874,-1.94921 z m -150.20106,0.60727 c 4.57002,-0.914 5.13271,-3.68538 2.1033,-10.35906 -1.42242,-3.13352 -2.99236,-5.94833 -3.48876,-6.25511 -0.83527,-0.51623 -2.578,2.78254 -6.2883,11.90287 -0.81219,1.99646 -1.47671,4.00024 -1.47671,4.45287 0,0.94607 5.00548,1.08742 9.15047,0.25843 z m 172.65577,-6.76587 c -0.99909,-0.16476 -2.61775,-0.16476 -3.59702,0 -1.6824,0.28306 -1.70156,0.49611 -0.34756,3.86739 l 1.43294,3.56784 2.16408,-3.56784 c 2.08586,-3.43885 2.09842,-3.57866 0.34756,-3.86739 z m 14.41297,-1.89271 c -0.75826,-0.17456 -2.41962,-0.0562 -3.69189,0.2632 l -2.31324,0.58059 2.11002,3.75427 2.11002,3.75428 1.58188,-4.01748 c 1.36649,-3.47044 1.39415,-4.0607 0.20321,-4.33486 z m -168.4322,6.75287 4.81955,-0.57908 -2.75009,-6.67798 c -4.08427,-9.91775 -4.69697,-10.20227 -7.67589,-3.56438 -1.37181,3.05681 -2.4942,6.21843 -2.4942,7.02582 0,0.80738 -0.42185,1.7287 -0.93744,2.04736 -1.79117,1.10699 -0.92255,2.34357 1.64052,2.33547 1.41789,-0.005 4.74678,-0.26873 7.39755,-0.58721 z M 207.8784,978.65094 c 16.99134,-1.78132 39.04809,-7.56973 60.06878,-15.76397 l 7.89609,-3.07804 -6.56213,-0.55964 c -5.96389,-0.50863 -7.3313,-0.26347 -14.99914,2.68926 -20.69781,7.97029 -39.72351,13.19662 -58.89967,16.17965 l -11.40881,1.77474 9.37446,-0.35073 c 5.15596,-0.1929 11.69464,-0.59397 14.53042,-0.89127 z m 129.96541,0.77167 c 2.44776,-0.48954 5.02687,-3.72794 5.02687,-6.31185 0,-1.12511 -7.62019,-10.21263 -8.13332,-9.69949 -0.21799,0.21799 -1.82347,4.03154 -3.56771,8.47456 l -3.17137,8.07821 3.56923,0 c 1.96309,0 4.78741,-0.24364 6.2763,-0.54143 z M 67.261447,976.68547 c -2.688898,-2.8622 -2.861501,-2.86116 -4.96537,0.0295 l -1.684291,2.31414 4.425687,0 4.425687,0 -2.201713,-2.34361 z m 206.479713,-6.1904 3.25936,-7.12787 -4.77912,1.81593 c -2.62852,0.99876 -5.06001,1.98952 -5.4033,2.2017 -0.34332,0.21217 0.0534,2.91484 0.88165,6.0059 0.82821,3.0911 1.79299,5.30787 2.14395,4.92618 0.35094,-0.3817 2.1048,-3.90153 3.89746,-7.82184 z m 72.41059,7.59658 c 0.31866,-0.5156 0.13262,-0.93745 -0.4134,-0.93745 -0.54602,0 -0.99278,0.42185 -0.99278,0.93745 0,0.51558 0.18604,0.93744 0.4134,0.93744 0.22737,0 0.67412,-0.42186 0.99278,-0.93744 z M 71.011226,971.52951 c 0,-5.20804 -0.290157,-6.56212 -1.406164,-6.56212 -1.259498,0 -1.57768,0.59341 -1.326103,2.47318 0.04402,0.32903 -0.483282,0.94714 -1.171808,1.37353 -1.015211,0.6287 -0.930798,1.26883 0.446441,3.38588 0.934087,1.43583 1.932453,3.34884 2.218596,4.25113 0.935475,2.94979 1.239038,1.74402 1.239038,-4.9216 z m 291.274574,5.25514 c 0.4385,-0.40333 -3.69253,-10.53955 -5.00718,-12.28598 -1.38694,-1.84245 -1.45197,-1.82623 -3.75891,0.93745 -4.40266,5.27436 -6.88111,9.73705 -6.27905,11.30601 0.5104,1.33012 1.57985,1.45259 7.72008,0.88408 3.92018,-0.36296 7.21646,-0.74166 7.32506,-0.84156 z M 60.434293,972.7475 c 1.060207,-1.59675 1.065247,-2.0075 0.02951,-2.40494 -0.756806,-0.29039 -2.124691,1.04216 -3.47094,3.38131 l -2.221873,3.86061 2.192347,-1.45566 c 1.205798,-0.80062 2.767708,-2.32221 3.470928,-3.38132 z m 231.477957,-4.49904 3.87469,-8.90575 -2.47226,-0.1038 c -4.29887,-0.18043 -7.08085,0.16226 -9.73748,1.19956 -3.06026,1.19487 -3.06232,1.20569 -0.8317,4.38417 0.96045,1.36857 2.30576,4.70304 2.98956,7.40992 0.68381,2.70688 1.48162,4.9216 1.7729,4.9216 0.2913,0 2.27323,-4.00759 4.40429,-8.90574 z m 34.0844,7.67565 c 0,-0.67656 0.89917,-3.09117 1.99815,-5.3658 1.09898,-2.27463 2.77139,-5.9396 3.71648,-8.14437 0.94506,-2.20477 2.32738,-4.00867 3.07179,-4.00867 0.7444,0 3.25473,2.9717 5.57851,6.60378 l 4.22503,6.60379 2.42309,-3.32272 c 1.33272,-1.8275 3.49921,-4.79921 4.81443,-6.60379 1.31523,-1.80459 2.97872,-3.28106 3.69664,-3.28106 1.9314,0 4.10235,3.55409 5.72618,9.37446 0.79116,2.83578 1.65773,5.78874 1.9257,6.56212 0.29545,0.8527 2.11905,-1.82239 4.63316,-6.79649 2.28027,-4.51146 4.69125,-8.20265 5.35773,-8.20265 0.66649,0 2.0846,1.52722 3.15136,3.39382 l 1.93954,3.39379 1.7279,-2.92508 c 0.95035,-1.60879 1.99341,-2.92508 2.31793,-2.92508 1.09644,0 3.44258,3.26381 4.38017,6.0934 l 0.93187,2.81234 1.72312,-3.54775 c 2.05899,-4.23932 4.01234,-4.23618 6.13564,0.01 l 1.50954,3.0187 1.68196,-3.72992 c 3.23591,-7.17596 5.41401,-6.49779 8.37809,2.60862 1.69395,5.20423 2.19045,5.47685 7.89622,4.3357 l 2.92952,-0.58591 0,-7.95848 0,-7.95848 -15.70222,0.57251 c -8.63623,0.31488 -24.77203,0.7867 -35.85733,1.04848 -11.0853,0.26178 -26.507,0.73255 -34.27045,1.04613 l -14.11533,0.57015 2.10612,4.16016 c 1.15837,2.28808 2.62066,6.45929 3.24952,9.26936 1.02861,4.59628 2.71994,7.00843 2.71994,3.87913 z M 121.63333,975.02504 C 110.12036,970.09452 91.673122,959.7234 88.822711,956.57875 88.220788,955.9147 76.623003,946.07106 74.732518,944.61968 c -1.211776,-0.9303 -1.405664,-0.70961 -1.24798,1.42048 0.102672,1.38706 0.220976,4.29452 0.26287,6.46103 0.06891,3.56257 0.468025,4.20871 4.175435,6.75948 2.254588,1.55121 4.363847,2.55579 4.687231,2.23241 0.323372,-0.32338 0.587955,-0.16425 0.587955,0.35362 0,2.85734 29.940181,14.01828 37.928921,14.13895 l 2.85001,0.043 -2.34363,-1.00369 z m 253.8846,-1.9905 c 0.89318,-2.47004 0.90164,-3.72886 0.0379,-5.62469 -0.61211,-1.34336 -1.43639,-2.44246 -1.83177,-2.44246 -0.65042,0 -5.5423,9.46424 -5.5423,10.72258 0,0.28973 1.39175,0.52677 3.09275,0.52677 2.66531,0 3.25177,-0.4398 4.24345,-3.1822 z m 9.90627,0.76192 c 1.01422,-2.64299 0.60731,-4.75405 -1.2383,-6.4243 -1.73731,-1.57224 -1.86244,-1.52897 -3.23085,1.11725 -1.86431,3.60516 -1.03591,6.7899 1.76615,6.7899 1.17368,0 2.39004,-0.66728 2.703,-1.48285 z m -75.08514,-7.65726 3.32772,-7.73393 -7.0519,0 -7.05192,0 1.84263,3.12303 c 1.01345,1.71767 2.35271,4.77609 2.97615,6.79649 1.87872,6.08855 1.96056,6.29899 2.30113,5.91688 0.18064,-0.20269 1.82594,-3.8488 3.65619,-8.10247 z m 84.85946,5.62468 c 0.16477,-1.1601 -0.15163,-2.10926 -0.70308,-2.10926 -0.55145,0 -0.89718,-0.47457 -0.76829,-1.05463 0.57927,-2.60667 -1.90324,-1.46152 -3.33346,1.53769 -2.08287,4.36781 -2.08187,4.37056 1.45857,4.02921 2.33514,-0.22514 3.11667,-0.78639 3.34626,-2.40301 z m 10.44675,0.74414 c 1.19259,-0.75432 1.16394,-1.3037 -0.21919,-4.20417 -0.87507,-1.83505 -1.97165,-3.33646 -2.43684,-3.33646 -0.4652,0 -1.5826,1.58193 -2.48312,3.51543 -0.90053,1.93347 -1.81719,3.8318 -2.03702,4.2185 -0.57266,1.00726 5.53829,0.84265 7.17617,-0.1933 z m 38.70399,-3.45828 5.39031,-0.57473 0,-6.90976 c 0,-6.85302 -0.0205,-6.90977 -2.48891,-6.90977 -2.3749,0 -2.416,0.0805 -0.89698,1.75906 1.45781,1.61087 1.46359,1.80832 0.0687,2.34362 -2.39998,0.92097 -3.07923,0.70833 -3.66854,-1.14837 -0.48932,-1.54173 -1.34966,-1.68421 -7.7971,-1.29115 -3.9859,0.24298 -7.87986,0.83202 -8.65326,1.30898 -1.00705,0.62103 -0.79481,0.69947 0.74771,0.27635 1.74252,-0.47798 3.1614,0.40868 7.42908,4.64247 2.90136,2.87831 4.94026,5.23329 4.53086,5.23329 -1.35004,0 -11.62131,-6.58933 -12.09532,-7.75954 -0.25538,-0.63041 -0.49762,1.54862 -0.53831,4.84229 l -0.074,5.9885 6.32776,-0.61325 c 3.48026,-0.33729 8.75339,-0.87189 11.71808,-1.18799 z M 56.440765,967.8445 c 0.296647,-0.47997 0.110675,-1.13764 -0.413388,-1.46149 -0.524013,-0.32385 -0.952733,0.0688 -0.952733,0.87266 0,1.64666 0.562505,1.88911 1.366121,0.58883 z m 8.730957,-1.76389 c 0.207281,-0.62184 -0.490999,-1.11322 -1.581945,-1.11322 -1.947385,0 -2.531038,0.98439 -1.30852,2.20691 0.86852,0.86852 2.433807,0.27623 2.890465,-1.09369 z m 6.776955,-6.16136 c 0,-2.28432 -0.609001,-3.57228 -2.174025,-4.59771 -1.990718,-1.30438 -2.267356,-1.27501 -3.281055,0.34819 -1.500807,2.40315 -1.412717,2.99136 0.804366,5.37111 2.861826,3.0718 4.650714,2.64039 4.650714,-1.12159 z M 60.699313,955.5347 c 0,-0.87022 -4.747008,-9.31623 -5.236093,-9.31623 -0.213734,0 -0.388576,3.17651 -0.388576,7.05891 l 0,7.05891 2.812328,-2.07925 c 1.546791,-1.14359 2.812341,-2.36864 2.812341,-2.72234 z m 11.249364,-3.83685 c 0,-2.89651 -0.03864,-2.92263 -1.871588,-1.26388 -1.427924,1.29227 -1.622938,1.99336 -0.822661,2.95763 1.715805,2.06742 2.694249,1.45232 2.694249,-1.69375 z m 242.504073,1.68718 c 0.0958,-0.0944 -0.0535,-1.8693 -0.33182,-3.94426 l -0.50602,-3.77265 -7.32487,3.7707 c -4.02868,2.07391 -7.18599,3.99544 -7.01624,4.2701 0.26932,0.43578 14.72089,0.12741 15.17895,-0.32389 z m 41.39751,-16.13796 c -0.33738,-9.57562 -0.82161,-17.61844 -1.07609,-17.87291 -0.25447,-0.25446 -3.95527,2.09567 -8.224,5.22252 -4.26873,3.12686 -8.10846,5.68519 -8.53274,5.68519 -0.4243,0 -0.79573,3.48027 -0.82545,7.73393 -0.0296,4.25366 -0.3797,9.42135 -0.77774,11.48372 -0.68393,3.54359 -0.75859,3.36317 -1.35766,-3.28105 -0.34868,-3.86697 -0.73693,-8.3662 -0.86279,-9.99828 l -0.22884,-2.96743 -7.49957,4.66501 c -4.12477,2.56577 -7.96368,4.95573 -8.53092,5.31104 -0.56723,0.35532 -1.28355,2.8434 -1.59179,5.52908 l -0.56046,4.88303 7.21648,0.31863 c 3.96905,0.17523 13.12239,0.40392 20.34072,0.50818 l 13.12425,0.18958 -0.6134,-17.41024 z m 21.38711,2.64363 c -0.3368,-8.12064 -0.61378,-20.39603 -0.61549,-27.2787 l -0.002,-12.51392 -5.70782,5.01435 c -3.13931,2.75789 -7.15988,6.27989 -8.93464,7.82668 l -3.22681,2.81235 -0.58868,19.45201 -0.58869,19.45201 10.1388,0 10.13882,0 -0.61238,-14.76478 z m 42.45869,-32.61516 c 0.66955,-26.05896 1.05909,-47.52816 0.86566,-47.70932 -0.19343,-0.18116 -4.93882,3.99767 -10.5453,9.28631 -6.0073,5.66673 -9.77273,9.87582 -9.16878,10.24908 1.22291,0.75579 0.37076,70.4825 -0.889,72.74153 -0.43998,0.78898 -0.84686,-8.88046 -0.92704,-22.02999 -0.0785,-12.88989 -0.40781,-29.20108 -0.73159,-36.24708 l -0.58871,-12.81091 -9.06437,8.5924 -9.06434,8.59241 -0.54114,28.35776 -0.54111,28.35775 19.98918,0 19.98917,0 1.21737,-47.37994 z m -127.96031,45.35457 c 1.31326,-0.59835 2.38772,-1.51236 2.38772,-2.03114 0,-0.51876 0.2617,-0.68152 0.58152,-0.36169 1.2828,1.28281 26.05003,-12.57361 43.00974,-24.06247 16.66298,-11.28787 39.08689,-30.51214 67.49614,-57.86529 4.64036,-4.46785 10.22988,-9.6968 12.42116,-11.61989 3.96276,-3.47774 3.98415,-3.53119 3.98415,-9.94956 0,-3.54918 -0.34068,-6.45305 -0.75705,-6.45305 -0.41638,0 -4.74036,4.05511 -9.60883,9.01135 -21.67597,22.06676 -49.2287,47.33961 -64.62982,59.28199 -4.38257,3.39833 -8.30566,6.71845 -8.71797,7.37803 -0.41231,0.65957 -1.14154,1.19923 -1.62048,1.19923 -0.47897,0 -6.54717,3.75715 -13.48492,8.3492 -6.93774,4.59206 -16.75479,10.65353 -21.81567,13.46993 -17.73639,9.87043 -22.33479,12.32572 -23.40956,12.49945 -0.59605,0.0963 -1.86159,0.62736 -2.81234,1.18001 -2.47545,1.43893 13.81577,1.41389 16.97621,-0.0261 z M 64.23427,951.66737 c -0.204092,-0.61228 -0.872309,-1.28031 -1.484925,-1.48451 -0.685049,-0.22833 -0.894556,0.20024 -0.54421,1.11323 0.653898,1.704 2.591554,2.05855 2.029135,0.37128 z m 385.13148,-3.74186 c -0.40804,-4.39269 -0.94636,-5.35046 -5.65227,-10.05637 l -5.20129,-5.20129 -5.18655,5.1221 -5.18653,5.1221 9.1597,1.17124 c 5.03783,0.64419 9.79247,0.94127 10.56587,0.66022 1.15367,-0.41926 1.18779,-0.29064 0.19,0.71633 -0.81988,0.8274 -4.71475,1.33001 -11.95245,1.54237 -10.41163,0.3055 -10.73626,0.37874 -10.73626,2.42175 0,1.15868 0.28123,2.38794 0.62496,2.73166 0.34372,0.34373 5.84516,0.62497 12.22539,0.62497 l 11.60042,0 -0.45099,-4.85508 z M 71.011226,943.27722 c 0,-0.4447 -2.943913,-0.80854 -6.542036,-0.80854 -6.445881,0 -6.527806,0.031 -5.574985,2.10926 0.531867,1.16007 2.27561,3.03415 3.874974,4.16459 l 2.907922,2.05535 2.667075,-3.35605 c 1.466867,-1.84584 2.66705,-3.71991 2.66705,-4.16461 z m 360.721494,-7.01104 c 4.67586,-5.52669 4.79239,-5.80055 3.22632,-7.58247 -0.89365,-1.01678 -3.41766,-3.87457 -5.60893,-6.35065 l -3.98414,-4.50195 0,12.97499 c 0,7.13624 0.34102,12.57424 0.75784,12.08443 0.4168,-0.48982 2.94081,-3.47078 5.60891,-6.62435 z m 16.88511,-8.81355 -0.28443,-4.76698 -4.01647,4.1009 -4.01648,4.10089 4.01648,4.94871 4.01647,4.94872 0.28443,-4.28263 c 0.15645,-2.35545 0.15645,-6.42776 0,-9.04961 z m -6.26364,-3.73288 c 1.70576,-2.06238 3.88021,-3.74979 4.8321,-3.74979 1.52839,0 1.65688,-0.52054 1.09912,-4.45286 -0.5335,-3.76132 -1.45236,-5.28774 -5.91648,-9.82853 -2.9067,-2.95661 -5.72437,-5.38225 -6.26151,-5.39031 -0.53714,-0.008 -2.85734,1.9449 -5.15596,4.33993 -2.29863,2.39504 -3.4411,4.09568 -2.5388,3.77921 0.90229,-0.31647 1.64053,-0.16678 1.64053,0.33262 0,0.49942 3.05842,0.93768 6.79649,0.97392 12.01732,0.11655 11.44045,1.52037 -0.93745,2.28135 -8.62269,0.53012 -11.48371,1.01899 -11.48371,1.96229 0,0.69097 0.56867,1.03809 1.26372,0.77138 0.76619,-0.29404 3.36545,2.11636 6.60251,6.12282 2.93635,3.63426 5.70316,6.60775 6.14843,6.60775 0.44529,0 2.20524,-1.6874 3.91101,-3.74978 z m -10.76898,-23.14149 c 2.75638,-3.50537 2.42251,-4.51662 -3.3327,-10.09374 l -3.82399,-3.70569 0.0338,11.20526 0.0338,11.20524 2.37049,-2.81234 c 1.30377,-1.54679 3.42723,-4.15621 4.71877,-5.79873 z m 16.27947,-1.89997 0,-10.0423 -4.63411,4.56443 -4.63412,4.56442 4.30368,5.47789 c 2.36703,3.01283 4.45237,5.47788 4.63411,5.47788 0.18175,0 0.33044,-4.51904 0.33044,-10.04232 z m -9.6554,-5.3423 c 1.91901,-3.38645 7.11893,-8.14627 8.37354,-7.66482 1.10425,0.42373 1.24192,-0.13912 0.72859,-2.97883 -0.3481,-1.92571 -0.68241,-3.5426 -0.74291,-3.59308 -0.0604,-0.0505 -5.24668,0.10592 -11.52488,0.34744 l -11.41486,0.43925 1.89851,1.99617 c 1.04418,1.09789 3.7799,4.4218 6.07935,7.38647 4.37532,5.64107 5.36531,6.25092 6.60266,4.0674 z m 8.71795,-17.22367 c 0,-0.9199 -2.30661,-3.95052 -5.12582,-6.7347 l -5.12581,-5.06214 -2.13939,1.7841 c -11.54944,9.63136 -11.64877,10.21201 -1.81254,10.59453 4.46058,0.17348 8.28593,0.48986 8.50076,0.7031 0.21483,0.21321 1.58584,0.38766 3.0467,0.38766 1.92403,0 2.6561,-0.46097 2.6561,-1.67255 z m -17.95903,-7.7943 c 2.65913,-3.1444 4.83479,-6.04413 4.83479,-6.44386 0,-0.39973 -2.32018,-3.32705 -5.15596,-6.50516 -2.83578,-3.17812 -5.15596,-5.16482 -5.15596,-4.4149 0,0.74991 0.52732,1.55444 1.17181,1.78785 0.93745,0.33949 0.93745,0.8213 0,2.40901 -1.02005,1.72766 -1.79286,18.88413 -0.85062,18.88413 0.17665,0 2.49682,-2.57268 5.15594,-5.71707 z m 17.77474,-9.30981 -0.28444,-4.77781 -3.91183,4.11313 -3.91183,4.11313 3.91183,4.85559 3.91183,4.85555 0.28444,-4.19088 c 0.15644,-2.30498 0.15644,-6.3409 0,-8.96871 z m -5.66632,-4.60936 3.99256,-4.63617 -5.99964,-3.3552 c -3.2998,-1.84536 -7.823,-4.79807 -10.05154,-6.56158 -3.01741,-2.38776 -4.35985,-2.95079 -5.25813,-2.20529 -1.56741,1.30084 -1.5955,7.31931 -0.0344,7.37679 0.64449,0.0238 3.632,3.18762 6.63892,7.03086 3.0069,3.84322 5.74892,6.98749 6.09339,6.98724 0.34446,-2.7e-4 2.42295,-2.08675 4.61886,-4.63665 z"
       style="fill:#000000" />
    <g
       id="g5395"
       transform="matrix(0.76117467,0,0,0.76117467,28.982541,351.50964)">
      <g
         id="g4597"
         transform="translate(-30,0)">
        <g
           id="g4392">
          <g
             id="g4394">
            <path
               style="fill:#003e22"
               inkscape:connector-curvature="0"
               id="path4396"
               d="m 273.496,116.355 c 0,62.765 -50.883,113.652 -113.647,113.652 -62.767,0 -113.652,-50.888 -113.652,-113.652 0,-62.768 50.886,-113.651 113.652,-113.651 62.764,10e-4 113.647,50.884 113.647,113.651 z" />
          </g>
        </g>
        <g
           id="g4398">
          <g
             id="g4400">
            <path
               style="fill:#f9ec31"
               inkscape:connector-curvature="0"
               id="path4402"
               d="m 219.558,132.982 c -2.249,-5.551 -7.494,-9.662 -16.497,-12.95 -11.45,-4.171 -13.758,-7.511 -13.729,-8.071 0.436,-0.637 4.74,-1.405 13.98,1.964 3.613,1.319 6.589,2.622 9.216,3.772 5.793,2.545 9.629,4.222 13.247,2.679 5.42,-2.323 8.847,-10.894 18.493,-37.33 -0.528,-1.336 -1.085,-2.655 -1.67,-3.953 -8.771,24.043 -13.561,36.716 -17.973,38.595 -2.453,1.049 -5.638,-0.346 -10.924,-2.666 -2.662,-1.164 -5.687,-2.491 -9.387,-3.844 -8.119,-2.957 -14.407,-3.517 -16.819,-1.495 -0.834,0.699 -1.205,1.716 -1.016,2.785 0.75,4.304 10.085,8.309 15.583,10.308 8.172,2.982 12.868,6.571 14.79,11.302 3.834,9.441 -3.288,24.179 -14.062,46.483 -2.914,6.014 -6.202,12.824 -9.587,20.196 1.354,-0.538 2.687,-1.098 4.004,-1.697 2.899,-6.22 5.701,-12.039 8.208,-17.233 11.121,-23.005 18.459,-38.206 14.143,-48.845 z" />
          </g>
          <g
             id="g4404">
            <path
               style="fill:#f9ec31"
               inkscape:connector-curvature="0"
               id="path4406"
               d="m 100.262,134.409 c 9.351,4.99 15.686,6.135 17.369,3.135 1.663,-2.961 -2.56,-7.913 -11.022,-12.902 -12.414,-7.317 -18.304,-13.255 -19.706,-19.845 -2.457,-11.574 8.677,-27.184 28.895,-55.513 3.88,-5.446 8.261,-11.583 12.9,-18.197 -1.687,0.616 -3.341,1.296 -4.98,2.008 -3.676,5.209 -7.146,10.076 -10.294,14.495 -21.375,29.95 -32.102,44.984 -29.377,57.815 1.587,7.471 7.891,13.975 21.08,21.753 8.074,4.765 10.118,8.249 9.979,8.929 -0.403,0.374 -4.049,0.776 -13.467,-4.25 -14.761,-7.88 -21.298,-4.061 -29.484,7.932 0.331,1.23 0.674,2.462 1.052,3.681 8.87,-13.598 13.912,-16.048 27.055,-9.041 z" />
          </g>
        </g>
        <g
           id="g4408">
          <g
             id="g4410">
            <path
               style="fill:#f9ec31"
               inkscape:connector-curvature="0"
               id="path4412"
               d="m 159.939,222.494 -0.8,-0.007 0.05,-10.216 0.75,0 c 2.065,0 4.167,-0.068 6.236,-0.201 l 0.665,10.198 c -2.292,0.148 -4.609,0.226 -6.901,0.226 z m -5.443,-0.14 c -2.56,-0.13 -5.143,-0.358 -7.685,-0.671 l 1.255,-10.145 c 2.305,0.286 4.644,0.492 6.952,0.607 l -0.522,10.209 z m 16.958,-0.489 -1.114,-10.155 c 2.312,-0.255 4.631,-0.595 6.901,-1.012 l 1.845,10.055 c -2.511,0.456 -5.073,0.834 -7.632,1.112 z m -29.228,-0.857 c -2.506,-0.417 -5.043,-0.945 -7.553,-1.548 l 2.421,-9.932 c 2.267,0.547 4.568,1.022 6.834,1.403 l -1.702,10.077 z m 41.399,-1.198 -2.286,-9.96 c 2.257,-0.518 4.519,-1.121 6.729,-1.807 l 3.015,9.763 c -2.45,0.757 -4.957,1.432 -7.458,2.004 z m -53.416,-1.548 c -2.461,-0.714 -4.924,-1.53 -7.328,-2.417 l 3.549,-9.584 c 2.175,0.811 4.399,1.544 6.623,2.185 l -2.844,9.816 z m 65.273,-1.912 -3.447,-9.625 c 2.188,-0.781 4.369,-1.654 6.478,-2.588 l 4.134,9.351 c -2.339,1.031 -4.75,1.989 -7.165,2.862 z m -76.902,-2.211 c -2.375,-0.996 -4.73,-2.089 -7.005,-3.252 l 4.646,-9.102 c 2.054,1.049 4.179,2.031 6.322,2.936 l -3.963,9.418 z m 88.263,-2.616 -4.541,-9.159 c 2.085,-1.032 4.146,-2.146 6.139,-3.317 l 5.186,8.805 c -2.205,1.294 -4.486,2.531 -6.784,3.671 z M 107.499,208.7 c -2.231,-1.265 -4.443,-2.621 -6.568,-4.039 l 5.67,-8.503 c 1.919,1.273 3.917,2.506 5.936,3.652 l -5.038,8.89 z m 110.058,-3.282 -5.55,-8.58 c 0.383,-0.244 0.752,-0.494 1.131,-0.741 1.563,-1.05 3.106,-2.149 4.582,-3.265 l 6.159,8.157 c -1.629,1.231 -3.336,2.444 -5.061,3.604 -0.418,0.282 -0.84,0.555 -1.261,0.825 z M 97.137,202.01 c -2.066,-1.516 -4.1,-3.119 -6.053,-4.782 l 6.621,-7.784 c 1.761,1.5 3.602,2.951 5.464,4.318 l -6.032,8.248 z m 130.374,-3.888 -6.503,-7.884 c 1.78,-1.466 3.529,-3.02 5.209,-4.629 l 7.062,7.391 c -1.858,1.776 -3.799,3.497 -5.768,5.122 z M 87.629,194.154 c -1.872,-1.745 -3.708,-3.58 -5.459,-5.463 l 7.489,-6.951 c 1.58,1.697 3.242,3.356 4.929,4.928 l -6.959,7.486 z m 148.921,-4.423 -7.376,-7.07 c 1.601,-1.667 3.154,-3.417 4.629,-5.204 l 7.874,6.513 c -1.633,1.975 -3.359,3.917 -5.127,5.761 z M 79.095,185.234 c -1.65,-1.944 -3.263,-3.982 -4.782,-6.047 l 8.238,-6.049 c 1.374,1.874 2.832,3.715 4.328,5.474 l -7.784,6.622 z m 165.456,-4.892 -8.154,-6.163 c 1.39,-1.84 2.731,-3.758 3.993,-5.702 l 8.583,5.544 c -1.395,2.156 -2.885,4.279 -4.422,6.321 z M 71.693,175.445 71.64,175.367 c -1.443,-2.157 -2.794,-4.338 -4.04,-6.532 l 8.88,-5.057 c 1.126,1.98 2.344,3.953 3.623,5.866 l -8.41,5.801 z m 179.702,-5.369 -8.816,-5.166 c 1.17,-1.994 2.282,-4.063 3.305,-6.14 l 9.171,4.509 c -1.132,2.306 -2.361,4.592 -3.66,6.797 z M 65.393,164.767 c -1.172,-2.277 -2.274,-4.631 -3.276,-6.984 l 9.406,-4.001 c 0.902,2.132 1.9,4.256 2.954,6.317 l -9.084,4.668 z m 191.614,-5.68 -9.363,-4.103 c 0.931,-2.128 1.793,-4.309 2.571,-6.484 l 9.626,3.417 c -0.855,2.411 -1.811,4.826 -2.834,7.17 z M 60.4,153.475 c -0.894,-2.392 -1.719,-4.854 -2.442,-7.322 l 9.811,-2.871 c 0.654,2.224 1.39,4.447 2.205,6.612 l -9.574,3.581 z m 200.898,-5.952 -9.771,-2.996 c 0.681,-2.215 1.284,-4.48 1.803,-6.738 l 9.964,2.281 c -0.577,2.492 -1.248,5.002 -1.996,7.453 z M 56.754,141.682 c -0.609,-2.488 -1.136,-5.035 -1.563,-7.56 l 10.074,-1.706 c 0.388,2.281 0.863,4.581 1.414,6.824 l -9.925,2.442 z m 207.471,-6.147 -10.053,-1.85 c 0.422,-2.275 0.76,-4.595 1.014,-6.901 l 10.163,1.122 c -0.281,2.544 -0.657,5.114 -1.124,7.629 z M 54.521,129.54 c -0.316,-2.545 -0.544,-5.133 -0.675,-7.687 l 10.208,-0.519 c 0.117,2.31 0.321,4.644 0.611,6.94 l -10.144,1.266 z m 211.23,-6.245 -10.194,-0.68 c 0.138,-2.104 0.208,-4.242 0.208,-6.351 l 0,-0.618 10.216,-0.072 0.005,0.69 c 0,2.335 -0.079,4.697 -0.235,7.031 z m -212.04,-6.066 0,-0.776 c 0,-2.311 0.074,-4.64 0.226,-6.945 l 10.196,0.676 c -0.134,2.075 -0.204,4.179 -0.204,6.269 l 0.005,0.694 -10.223,0.082 z m 201.933,-5.766 c -0.11,-2.31 -0.316,-4.645 -0.604,-6.945 l 10.146,-1.256 c 0.313,2.544 0.537,5.133 0.665,7.692 l -10.207,0.509 z m -191.145,-5.455 -10.16,-1.106 c 0.278,-2.55 0.651,-5.119 1.112,-7.635 l 10.053,1.836 c -0.418,2.275 -0.755,4.6 -1.005,6.905 z m 189.937,-5.631 c -0.382,-2.281 -0.854,-4.582 -1.405,-6.829 l 9.926,-2.43 c 0.614,2.497 1.136,5.037 1.563,7.568 l -10.084,1.691 z M 66.344,95.004 56.381,92.733 c 0.572,-2.497 1.241,-5.003 1.989,-7.452 l 9.772,2.985 c -0.677,2.214 -1.278,4.481 -1.798,6.738 z m 185.604,-5.497 c -0.646,-2.214 -1.384,-4.446 -2.195,-6.613 l 9.576,-3.572 c 0.896,2.397 1.715,4.871 2.431,7.324 l -9.812,2.861 z M 69.455,84.293 59.817,80.886 c 0.858,-2.42 1.812,-4.836 2.837,-7.175 l 9.36,4.098 c -0.928,2.113 -1.787,4.294 -2.559,6.484 z m 178.747,-5.286 c -0.902,-2.127 -1.894,-4.25 -2.953,-6.316 l 9.094,-4.664 c 1.171,2.286 2.274,4.635 3.269,6.987 l -9.41,3.993 z m -174.425,-4.995 -9.175,-4.5 c 1.129,-2.31 2.36,-4.59 3.647,-6.797 l 8.821,5.158 c -1.164,1.995 -2.276,4.06 -3.293,6.139 z m 169.481,-5.007 c -1.144,-2.003 -2.373,-4.001 -3.67,-5.937 l 8.395,-5.833 0.118,0.173 c 1.415,2.121 2.779,4.333 4.042,6.547 l -8.885,5.05 z M 79.255,64.309 70.672,58.771 c 1.39,-2.154 2.874,-4.282 4.415,-6.326 l 8.165,6.154 c -1.398,1.85 -2.74,3.769 -3.997,5.71 z m 157.841,-4.802 c -1.38,-1.875 -2.837,-3.715 -4.332,-5.469 l 7.772,-6.63 c 1.657,1.941 3.269,3.976 4.788,6.046 l -8.228,6.053 z M 85.836,55.32 77.952,48.817 c 1.63,-1.977 3.354,-3.919 5.128,-5.769 l 7.386,7.065 c -1.606,1.673 -3.161,3.425 -4.63,5.207 z m 144.143,-4.404 c -1.582,-1.701 -3.24,-3.359 -4.932,-4.927 l 6.949,-7.49 c 1.879,1.74 3.715,3.575 5.464,5.451 l -7.481,6.966 z M 93.418,47.156 86.349,39.778 c 1.845,-1.768 3.786,-3.497 5.763,-5.13 l 6.515,7.872 C 96.84,44 95.086,45.56 93.418,47.156 Z m 128.505,-3.94 c -1.762,-1.5 -3.604,-2.95 -5.469,-4.318 l 6.026,-8.249 c 2.068,1.512 4.105,3.118 6.059,4.779 l -6.616,7.788 z m -120.02,-3.292 -6.161,-8.15 c 1.663,-1.262 3.393,-2.49 5.135,-3.659 0.39,-0.257 0.784,-0.518 1.182,-0.772 l 5.564,8.574 c -0.359,0.23 -0.712,0.46 -1.062,0.699 -1.583,1.053 -3.148,2.167 -4.658,3.308 z M 213.025,36.51 c -1.92,-1.278 -3.918,-2.504 -5.938,-3.646 l 5.025,-8.899 c 2.236,1.265 4.447,2.621 6.576,4.04 l -5.663,8.505 z m -101.843,-2.8 -5.192,-8.806 c 2.209,-1.304 4.495,-2.538 6.784,-3.677 l 4.541,9.157 c -2.071,1.026 -4.132,2.145 -6.133,3.326 z m 92.217,-2.82 c -2.056,-1.049 -4.184,-2.032 -6.321,-2.933 l 3.954,-9.422 c 2.367,0.997 4.721,2.087 6.999,3.242 l -4.632,9.113 z m -82.294,-2.284 -4.143,-9.346 c 2.351,-1.038 4.762,-2.006 7.172,-2.869 l 3.441,9.624 c -2.176,0.78 -4.354,1.652 -6.47,2.591 z m 72.076,-2.183 c -2.166,-0.801 -4.395,-1.536 -6.617,-2.181 l 2.836,-9.815 c 2.466,0.711 4.932,1.521 7.331,2.411 l -3.55,9.585 z m -61.637,-1.732 -3.017,-9.765 c 2.446,-0.752 4.947,-1.429 7.45,-2.008 l 2.297,9.962 c -2.254,0.516 -4.521,1.128 -6.73,1.811 z m 50.97,-1.524 c -2.244,-0.544 -4.544,-1.016 -6.83,-1.399 l 1.686,-10.083 c 2.536,0.429 5.081,0.951 7.561,1.555 l -2.417,9.927 z M 142.37,22.031 140.516,11.984 c 2.522,-0.473 5.09,-0.846 7.634,-1.129 l 1.118,10.159 c -2.302,0.253 -4.617,0.595 -6.898,1.017 z m 29.168,-0.867 c -2.296,-0.288 -4.63,-0.486 -6.945,-0.602 l 0.514,-10.208 c 2.564,0.13 5.146,0.355 7.687,0.667 l -1.256,10.143 z m -18.101,-0.52 -0.672,-10.192 c 2.311,-0.155 4.669,-0.232 6.991,-0.232 l 0.716,0.003 -0.062,10.22 -0.654,0 c -2.102,-0.001 -4.225,0.066 -6.319,0.201 z" />
          </g>
        </g>
        <g
           id="g4414">
          <g
             id="g4416">
            <path
               style="fill:#ed3258"
               inkscape:connector-curvature="0"
               id="path4418"
               d="m 128.974,130.964 -0.872,-0.27 c 0.288,0.103 0.581,0.179 0.872,0.27 z" />
          </g>
          <g
             id="g4420">
            <path
               style="fill:#f9ec31"
               inkscape:connector-curvature="0"
               id="path4422"
               d="m 224.803,63.183 c -1.217,-2.888 -1.471,-6.106 -0.675,-9.18 l -2.832,-0.724 c -0.906,3.532 -0.677,7.215 0.622,10.561 -2.793,0.898 -5.358,2.519 -7.419,4.777 l -0.459,-0.489 c -1.18,-1.26 -2.986,-1.707 -4.615,-1.141 L 186.7,74.765 c -1.39,0.475 -2.452,1.62 -2.82,3.043 -0.369,1.428 0,2.938 0.987,4.031 l 0.31,0.344 12.262,-2.175 -4.783,10.946 c -0.801,-0.834 -1.605,-1.692 -2.42,-2.588 l -1.913,-2.123 c -4.488,3.14 -6.401,2.411 -7.798,1.309 -0.335,-0.259 -0.647,-0.494 -0.978,-0.748 l -11.504,4.534 2.428,-11.257 c -0.496,-0.346 -0.988,-0.681 -1.477,-1.016 l -11.33,5.329 2.08,-11.09 C 147.796,66.705 138.446,65.147 129.34,67.802 l 0.795,11.292 -10.251,-6.676 c -1.2,0.877 -2.348,1.835 -3.432,2.88 l 4.903,10.294 -11.297,-1.903 c -0.742,1.356 -1.404,2.756 -1.96,4.199 l 8.493,8.075 -10.673,2.694 c -0.249,9.93 4.333,19.367 13.204,26.958 1.591,1.357 3.297,2.459 5.075,3.38 l 8.38,-8.565 2.37,11.887 c 0.865,0.124 1.734,0.224 2.61,0.307 l 6.331,-10.515 4.843,10.534 c 0.824,-0.054 1.644,-0.119 2.458,-0.193 l 5.199,-11.338 6.169,10.093 c 0.017,0 0.034,-0.006 0.048,-0.006 7.663,-0.837 13.443,3.624 16.31,9.405 l 11.699,2.847 -9.957,8.503 c -0.081,0.478 -0.189,0.966 -0.324,1.461 l 6.096,10.337 -13.51,-0.537 -1.524,11.848 -9.662,-8.066 c -1.491,-0.009 -2.984,-0.248 -4.467,-0.681 l -11.303,6.239 0.958,-11.746 c -0.462,-0.335 -0.918,-0.68 -1.373,-1.029 l -11.752,4.045 3.341,-11.057 c -4.462,-3.781 -9.609,-5.378 -14.901,-4.61 -5.269,0.766 -10.131,3.825 -14.272,8.846 l 4.808,11.336 -11.352,-2.147 -1.647,2.367 4.889,11.561 -11.162,-2.55 -2.31,3.316 10.201,8.344 14.864,-21.346 0.129,-0.197 c 2.442,-3.786 5.258,-6.168 7.738,-6.522 0.558,-0.086 2.255,-0.33 4.589,1.677 l 1.246,1.074 c 9.283,8.023 23.304,20.148 39.746,15.067 20.292,-6.273 26.527,-22.783 23.716,-36.37 -3.245,-15.615 -17.107,-26.141 -32.247,-24.478 -1.175,0.135 -2.382,0.274 -3.619,0.423 -10.361,1.217 -23.263,2.736 -29.892,-2.934 -6.628,-5.664 -9.518,-12.306 -8.368,-19.193 1.27,-7.534 6.928,-13.443 11.867,-15.384 6.686,-2.627 15.379,-3.494 41.246,16.84 9.101,7.151 18.456,2.833 24.715,-1.802 l -1.917,-2.127 c -0.846,-0.958 -1.706,-1.95 -2.58,-2.967 l 12.621,-2.243 -4.627,10.573 1.529,1.697 c 0.484,0.547 1.087,0.944 1.75,1.185 0.673,0.244 1.401,0.325 2.125,0.225 1.447,-0.211 2.698,-1.126 3.321,-2.445 l 10.41,-21.681 c 0.782,-1.63 0.479,-3.571 -0.762,-4.893 l -2.49,-2.651 c 4.153,-4.692 10.91,-6.169 16.724,-3.489 l 1.229,-2.649 c -3.116,-1.45 -6.459,-1.886 -9.651,-1.438 z" />
          </g>
        </g>
      </g>
      <g
         id="g4615"
         transform="translate(-48,0)">
        <g
           transform="matrix(1.2886835,0,0,1,-96.186187,-3.590997)"
           style="fill:#231f20;fill-opacity:1"
           id="g4384">
          <g
             style="fill:#231f20;fill-opacity:1"
             id="g4386">
            <rect
               style="fill:#231f20;fill-opacity:1"
               id="rect4388"
               height="5.6420002"
               width="271.595"
               y="125.27"
               x="307.548" />
          </g>
        </g>
        <text
           sodipodi:linespacing="125%"
           id="text4430"
           y="88.053383"
           x="298.31738"
           style="font-style:normal;font-variant:normal;font-weight:normal;font-stretch:normal;font-size:105px;line-height:125%;font-family:Monospace;-inkscape-font-specification:Monospace;text-align:start;letter-spacing:0px;word-spacing:0px;writing-mode:lr-tb;text-anchor:start;fill:#003e22;fill-opacity:1;stroke:none;stroke-width:1px;stroke-linecap:butt;stroke-linejoin:miter;stroke-opacity:1"
           xml:space="preserve"><tspan
             dx="0 0 0 0 -23.686831 0"
             style="font-style:italic;font-variant:normal;font-weight:bold;font-stretch:normal;font-size:100px;font-family:'Open Sans';-inkscape-font-specification:'Open Sans Bold Italic';fill:#003e22;fill-opacity:1"
             y="88.053383"
             x="298.31738"
             id="tspan4432"
             sodipodi:role="line"><tspan
   id="tspan4434"
   style="font-size:100px;fill:#231f20;fill-opacity:1">Sci </tspan>Py<tspan
   style="font-size:100px;fill:#231f20;fill-opacity:1"
   id="tspan4582">LA</tspan></tspan></text>
        <text
           sodipodi:linespacing="125%"
           id="text4436"
           y="217.61922"
           x="360.74155"
           style="font-style:normal;font-variant:normal;font-weight:normal;font-stretch:normal;font-size:120px;line-height:125%;font-family:Monospace;-inkscape-font-specification:Monospace;text-align:start;letter-spacing:0px;word-spacing:0px;writing-mode:lr-tb;text-anchor:start;fill:#231f20;fill-opacity:1;stroke:none;stroke-width:1px;stroke-linecap:butt;stroke-linejoin:miter;stroke-opacity:1"
           xml:space="preserve"><tspan
             style="font-style:normal;font-variant:normal;font-weight:bold;font-stretch:normal;font-size:100px;font-family:'Open Sans';-inkscape-font-specification:'Open Sans Bold';fill:#231f20;fill-opacity:1"
             y="217.61922"
             x="360.74155"
             id="tspan4438"
             sodipodi:role="line">2016</tspan></text>
      </g>
    </g>
  </g>
</svg>
