<?xml version="1.0" encoding="UTF-8" standalone="no"?>
<!-- Generator: Adobe Illustrator 16.0.0, SVG Export Plug-In . SVG Version: 6.00 Build 0)  -->

<svg
   xmlns:dc="http://purl.org/dc/elements/1.1/"
   xmlns:cc="http://creativecommons.org/ns#"
   xmlns:rdf="http://www.w3.org/1999/02/22-rdf-syntax-ns#"
   xmlns:svg="http://www.w3.org/2000/svg"
   xmlns="http://www.w3.org/2000/svg"
   xmlns:sodipodi="http://sodipodi.sourceforge.net/DTD/sodipodi-0.dtd"
   xmlns:inkscape="http://www.inkscape.org/namespaces/inkscape"
   version="1.1"
   id="Layer_1"
   x="0px"
   y="0px"
   width="624px"
   height="233px"
   viewBox="0 0 624 233"
   enable-background="new 0 0 624 233"
   xml:space="preserve"
   inkscape:version="0.91 r13725"
   sodipodi:docname="logo2-scipyla-path.svg"><metadata
     id="metadata4428"><rdf:RDF><cc:Work
         rdf:about=""><dc:format>image/svg+xml</dc:format><dc:type
           rdf:resource="http://purl.org/dc/dcmitype/StillImage" /><dc:title></dc:title></cc:Work></rdf:RDF></metadata><defs
     id="defs4426" /><sodipodi:namedview
     pagecolor="#ffffff"
     bordercolor="#666666"
     borderopacity="1"
     objecttolerance="10"
     gridtolerance="10"
     guidetolerance="10"
     inkscape:pageopacity="0"
     inkscape:pageshadow="2"
     inkscape:window-width="1362"
     inkscape:window-height="729"
     id="namedview4424"
     showgrid="true"
     inkscape:zoom="0.95527407"
     inkscape:cx="289.68174"
     inkscape:cy="107.79304"
     inkscape:window-x="0"
     inkscape:window-y="18"
     inkscape:window-maximized="0"
     inkscape:current-layer="Layer_1"><inkscape:grid
       type="xygrid"
       id="grid4530" /></sodipodi:namedview><g
     id="g4696"><g
       transform="translate(-30,0)"
       id="g4597"><g
         id="g4392"><g
           id="g4394"><path
             d="m 273.496,116.355 c 0,62.765 -50.883,113.652 -113.647,113.652 -62.767,0 -113.652,-50.888 -113.652,-113.652 0,-62.768 50.886,-113.651 113.652,-113.651 62.764,10e-4 113.647,50.884 113.647,113.651 z"
             id="path4396"
             inkscape:connector-curvature="0"
             style="fill:#003e22" /></g></g><g
         id="g4398"><g
           id="g4400"><path
             d="m 219.558,132.982 c -2.249,-5.551 -7.494,-9.662 -16.497,-12.95 -11.45,-4.171 -13.758,-7.511 -13.729,-8.071 0.436,-0.637 4.74,-1.405 13.98,1.964 3.613,1.319 6.589,2.622 9.216,3.772 5.793,2.545 9.629,4.222 13.247,2.679 5.42,-2.323 8.847,-10.894 18.493,-37.33 -0.528,-1.336 -1.085,-2.655 -1.67,-3.953 -8.771,24.043 -13.561,36.716 -17.973,38.595 -2.453,1.049 -5.638,-0.346 -10.924,-2.666 -2.662,-1.164 -5.687,-2.491 -9.387,-3.844 -8.119,-2.957 -14.407,-3.517 -16.819,-1.495 -0.834,0.699 -1.205,1.716 -1.016,2.785 0.75,4.304 10.085,8.309 15.583,10.308 8.172,2.982 12.868,6.571 14.79,11.302 3.834,9.441 -3.288,24.179 -14.062,46.483 -2.914,6.014 -6.202,12.824 -9.587,20.196 1.354,-0.538 2.687,-1.098 4.004,-1.697 2.899,-6.22 5.701,-12.039 8.208,-17.233 11.121,-23.005 18.459,-38.206 14.143,-48.845 z"
             id="path4402"
             inkscape:connector-curvature="0"
             style="fill:#f9ec31" /></g><g
           id="g4404"><path
             d="m 100.262,134.409 c 9.351,4.99 15.686,6.135 17.369,3.135 1.663,-2.961 -2.56,-7.913 -11.022,-12.902 -12.414,-7.317 -18.304,-13.255 -19.706,-19.845 -2.457,-11.574 8.677,-27.184 28.895,-55.513 3.88,-5.446 8.261,-11.583 12.9,-18.197 -1.687,0.616 -3.341,1.296 -4.98,2.008 -3.676,5.209 -7.146,10.076 -10.294,14.495 -21.375,29.95 -32.102,44.984 -29.377,57.815 1.587,7.471 7.891,13.975 21.08,21.753 8.074,4.765 10.118,8.249 9.979,8.929 -0.403,0.374 -4.049,0.776 -13.467,-4.25 -14.761,-7.88 -21.298,-4.061 -29.484,7.932 0.331,1.23 0.674,2.462 1.052,3.681 8.87,-13.598 13.912,-16.048 27.055,-9.041 z"
             id="path4406"
             inkscape:connector-curvature="0"
             style="fill:#f9ec31" /></g></g><g
         id="g4408"><g
           id="g4410"><path
             d="m 159.939,222.494 -0.8,-0.007 0.05,-10.216 0.75,0 c 2.065,0 4.167,-0.068 6.236,-0.201 l 0.665,10.198 c -2.292,0.148 -4.609,0.226 -6.901,0.226 z m -5.443,-0.14 c -2.56,-0.13 -5.143,-0.358 -7.685,-0.671 l 1.255,-10.145 c 2.305,0.286 4.644,0.492 6.952,0.607 l -0.522,10.209 z m 16.958,-0.489 -1.114,-10.155 c 2.312,-0.255 4.631,-0.595 6.901,-1.012 l 1.845,10.055 c -2.511,0.456 -5.073,0.834 -7.632,1.112 z m -29.228,-0.857 c -2.506,-0.417 -5.043,-0.945 -7.553,-1.548 l 2.421,-9.932 c 2.267,0.547 4.568,1.022 6.834,1.403 l -1.702,10.077 z m 41.399,-1.198 -2.286,-9.96 c 2.257,-0.518 4.519,-1.121 6.729,-1.807 l 3.015,9.763 c -2.45,0.757 -4.957,1.432 -7.458,2.004 z m -53.416,-1.548 c -2.461,-0.714 -4.924,-1.53 -7.328,-2.417 l 3.549,-9.584 c 2.175,0.811 4.399,1.544 6.623,2.185 l -2.844,9.816 z m 65.273,-1.912 -3.447,-9.625 c 2.188,-0.781 4.369,-1.654 6.478,-2.588 l 4.134,9.351 c -2.339,1.031 -4.75,1.989 -7.165,2.862 z m -76.902,-2.211 c -2.375,-0.996 -4.73,-2.089 -7.005,-3.252 l 4.646,-9.102 c 2.054,1.049 4.179,2.031 6.322,2.936 l -3.963,9.418 z m 88.263,-2.616 -4.541,-9.159 c 2.085,-1.032 4.146,-2.146 6.139,-3.317 l 5.186,8.805 c -2.205,1.294 -4.486,2.531 -6.784,3.671 z M 107.499,208.7 c -2.231,-1.265 -4.443,-2.621 -6.568,-4.039 l 5.67,-8.503 c 1.919,1.273 3.917,2.506 5.936,3.652 l -5.038,8.89 z m 110.058,-3.282 -5.55,-8.58 c 0.383,-0.244 0.752,-0.494 1.131,-0.741 1.563,-1.05 3.106,-2.149 4.582,-3.265 l 6.159,8.157 c -1.629,1.231 -3.336,2.444 -5.061,3.604 -0.418,0.282 -0.84,0.555 -1.261,0.825 z M 97.137,202.01 c -2.066,-1.516 -4.1,-3.119 -6.053,-4.782 l 6.621,-7.784 c 1.761,1.5 3.602,2.951 5.464,4.318 l -6.032,8.248 z m 130.374,-3.888 -6.503,-7.884 c 1.78,-1.466 3.529,-3.02 5.209,-4.629 l 7.062,7.391 c -1.858,1.776 -3.799,3.497 -5.768,5.122 z M 87.629,194.154 c -1.872,-1.745 -3.708,-3.58 -5.459,-5.463 l 7.489,-6.951 c 1.58,1.697 3.242,3.356 4.929,4.928 l -6.959,7.486 z m 148.921,-4.423 -7.376,-7.07 c 1.601,-1.667 3.154,-3.417 4.629,-5.204 l 7.874,6.513 c -1.633,1.975 -3.359,3.917 -5.127,5.761 z M 79.095,185.234 c -1.65,-1.944 -3.263,-3.982 -4.782,-6.047 l 8.238,-6.049 c 1.374,1.874 2.832,3.715 4.328,5.474 l -7.784,6.622 z m 165.456,-4.892 -8.154,-6.163 c 1.39,-1.84 2.731,-3.758 3.993,-5.702 l 8.583,5.544 c -1.395,2.156 -2.885,4.279 -4.422,6.321 z M 71.693,175.445 71.64,175.367 c -1.443,-2.157 -2.794,-4.338 -4.04,-6.532 l 8.88,-5.057 c 1.126,1.98 2.344,3.953 3.623,5.866 l -8.41,5.801 z m 179.702,-5.369 -8.816,-5.166 c 1.17,-1.994 2.282,-4.063 3.305,-6.14 l 9.171,4.509 c -1.132,2.306 -2.361,4.592 -3.66,6.797 z M 65.393,164.767 c -1.172,-2.277 -2.274,-4.631 -3.276,-6.984 l 9.406,-4.001 c 0.902,2.132 1.9,4.256 2.954,6.317 l -9.084,4.668 z m 191.614,-5.68 -9.363,-4.103 c 0.931,-2.128 1.793,-4.309 2.571,-6.484 l 9.626,3.417 c -0.855,2.411 -1.811,4.826 -2.834,7.17 z M 60.4,153.475 c -0.894,-2.392 -1.719,-4.854 -2.442,-7.322 l 9.811,-2.871 c 0.654,2.224 1.39,4.447 2.205,6.612 l -9.574,3.581 z m 200.898,-5.952 -9.771,-2.996 c 0.681,-2.215 1.284,-4.48 1.803,-6.738 l 9.964,2.281 c -0.577,2.492 -1.248,5.002 -1.996,7.453 z M 56.754,141.682 c -0.609,-2.488 -1.136,-5.035 -1.563,-7.56 l 10.074,-1.706 c 0.388,2.281 0.863,4.581 1.414,6.824 l -9.925,2.442 z m 207.471,-6.147 -10.053,-1.85 c 0.422,-2.275 0.76,-4.595 1.014,-6.901 l 10.163,1.122 c -0.281,2.544 -0.657,5.114 -1.124,7.629 z M 54.521,129.54 c -0.316,-2.545 -0.544,-5.133 -0.675,-7.687 l 10.208,-0.519 c 0.117,2.31 0.321,4.644 0.611,6.94 l -10.144,1.266 z m 211.23,-6.245 -10.194,-0.68 c 0.138,-2.104 0.208,-4.242 0.208,-6.351 l 0,-0.618 10.216,-0.072 0.005,0.69 c 0,2.335 -0.079,4.697 -0.235,7.031 z m -212.04,-6.066 0,-0.776 c 0,-2.311 0.074,-4.64 0.226,-6.945 l 10.196,0.676 c -0.134,2.075 -0.204,4.179 -0.204,6.269 l 0.005,0.694 -10.223,0.082 z m 201.933,-5.766 c -0.11,-2.31 -0.316,-4.645 -0.604,-6.945 l 10.146,-1.256 c 0.313,2.544 0.537,5.133 0.665,7.692 l -10.207,0.509 z m -191.145,-5.455 -10.16,-1.106 c 0.278,-2.55 0.651,-5.119 1.112,-7.635 l 10.053,1.836 c -0.418,2.275 -0.755,4.6 -1.005,6.905 z m 189.937,-5.631 c -0.382,-2.281 -0.854,-4.582 -1.405,-6.829 l 9.926,-2.43 c 0.614,2.497 1.136,5.037 1.563,7.568 l -10.084,1.691 z M 66.344,95.004 56.381,92.733 c 0.572,-2.497 1.241,-5.003 1.989,-7.452 l 9.772,2.985 c -0.677,2.214 -1.278,4.481 -1.798,6.738 z m 185.604,-5.497 c -0.646,-2.214 -1.384,-4.446 -2.195,-6.613 l 9.576,-3.572 c 0.896,2.397 1.715,4.871 2.431,7.324 l -9.812,2.861 z M 69.455,84.293 59.817,80.886 c 0.858,-2.42 1.812,-4.836 2.837,-7.175 l 9.36,4.098 c -0.928,2.113 -1.787,4.294 -2.559,6.484 z m 178.747,-5.286 c -0.902,-2.127 -1.894,-4.25 -2.953,-6.316 l 9.094,-4.664 c 1.171,2.286 2.274,4.635 3.269,6.987 l -9.41,3.993 z m -174.425,-4.995 -9.175,-4.5 c 1.129,-2.31 2.36,-4.59 3.647,-6.797 l 8.821,5.158 c -1.164,1.995 -2.276,4.06 -3.293,6.139 z m 169.481,-5.007 c -1.144,-2.003 -2.373,-4.001 -3.67,-5.937 l 8.395,-5.833 0.118,0.173 c 1.415,2.121 2.779,4.333 4.042,6.547 l -8.885,5.05 z M 79.255,64.309 70.672,58.771 c 1.39,-2.154 2.874,-4.282 4.415,-6.326 l 8.165,6.154 c -1.398,1.85 -2.74,3.769 -3.997,5.71 z m 157.841,-4.802 c -1.38,-1.875 -2.837,-3.715 -4.332,-5.469 l 7.772,-6.63 c 1.657,1.941 3.269,3.976 4.788,6.046 l -8.228,6.053 z M 85.836,55.32 77.952,48.817 c 1.63,-1.977 3.354,-3.919 5.128,-5.769 l 7.386,7.065 c -1.606,1.673 -3.161,3.425 -4.63,5.207 z m 144.143,-4.404 c -1.582,-1.701 -3.24,-3.359 -4.932,-4.927 l 6.949,-7.49 c 1.879,1.74 3.715,3.575 5.464,5.451 l -7.481,6.966 z M 93.418,47.156 86.349,39.778 c 1.845,-1.768 3.786,-3.497 5.763,-5.13 l 6.515,7.872 C 96.84,44 95.086,45.56 93.418,47.156 Z m 128.505,-3.94 c -1.762,-1.5 -3.604,-2.95 -5.469,-4.318 l 6.026,-8.249 c 2.068,1.512 4.105,3.118 6.059,4.779 l -6.616,7.788 z m -120.02,-3.292 -6.161,-8.15 c 1.663,-1.262 3.393,-2.49 5.135,-3.659 0.39,-0.257 0.784,-0.518 1.182,-0.772 l 5.564,8.574 c -0.359,0.23 -0.712,0.46 -1.062,0.699 -1.583,1.053 -3.148,2.167 -4.658,3.308 z M 213.025,36.51 c -1.92,-1.278 -3.918,-2.504 -5.938,-3.646 l 5.025,-8.899 c 2.236,1.265 4.447,2.621 6.576,4.04 l -5.663,8.505 z m -101.843,-2.8 -5.192,-8.806 c 2.209,-1.304 4.495,-2.538 6.784,-3.677 l 4.541,9.157 c -2.071,1.026 -4.132,2.145 -6.133,3.326 z m 92.217,-2.82 c -2.056,-1.049 -4.184,-2.032 -6.321,-2.933 l 3.954,-9.422 c 2.367,0.997 4.721,2.087 6.999,3.242 l -4.632,9.113 z m -82.294,-2.284 -4.143,-9.346 c 2.351,-1.038 4.762,-2.006 7.172,-2.869 l 3.441,9.624 c -2.176,0.78 -4.354,1.652 -6.47,2.591 z m 72.076,-2.183 c -2.166,-0.801 -4.395,-1.536 -6.617,-2.181 l 2.836,-9.815 c 2.466,0.711 4.932,1.521 7.331,2.411 l -3.55,9.585 z m -61.637,-1.732 -3.017,-9.765 c 2.446,-0.752 4.947,-1.429 7.45,-2.008 l 2.297,9.962 c -2.254,0.516 -4.521,1.128 -6.73,1.811 z m 50.97,-1.524 c -2.244,-0.544 -4.544,-1.016 -6.83,-1.399 l 1.686,-10.083 c 2.536,0.429 5.081,0.951 7.561,1.555 l -2.417,9.927 z M 142.37,22.031 140.516,11.984 c 2.522,-0.473 5.09,-0.846 7.634,-1.129 l 1.118,10.159 c -2.302,0.253 -4.617,0.595 -6.898,1.017 z m 29.168,-0.867 c -2.296,-0.288 -4.63,-0.486 -6.945,-0.602 l 0.514,-10.208 c 2.564,0.13 5.146,0.355 7.687,0.667 l -1.256,10.143 z m -18.101,-0.52 -0.672,-10.192 c 2.311,-0.155 4.669,-0.232 6.991,-0.232 l 0.716,0.003 -0.062,10.22 -0.654,0 c -2.102,-0.001 -4.225,0.066 -6.319,0.201 z"
             id="path4412"
             inkscape:connector-curvature="0"
             style="fill:#f9ec31" /></g></g><g
         id="g4414"><g
           id="g4416"><path
             d="m 128.974,130.964 -0.872,-0.27 c 0.288,0.103 0.581,0.179 0.872,0.27 z"
             id="path4418"
             inkscape:connector-curvature="0"
             style="fill:#ed3258" /></g><g
           id="g4420"><path
             d="m 224.803,63.183 c -1.217,-2.888 -1.471,-6.106 -0.675,-9.18 l -2.832,-0.724 c -0.906,3.532 -0.677,7.215 0.622,10.561 -2.793,0.898 -5.358,2.519 -7.419,4.777 l -0.459,-0.489 c -1.18,-1.26 -2.986,-1.707 -4.615,-1.141 L 186.7,74.765 c -1.39,0.475 -2.452,1.62 -2.82,3.043 -0.369,1.428 0,2.938 0.987,4.031 l 0.31,0.344 12.262,-2.175 -4.783,10.946 c -0.801,-0.834 -1.605,-1.692 -2.42,-2.588 l -1.913,-2.123 c -4.488,3.14 -6.401,2.411 -7.798,1.309 -0.335,-0.259 -0.647,-0.494 -0.978,-0.748 l -11.504,4.534 2.428,-11.257 c -0.496,-0.346 -0.988,-0.681 -1.477,-1.016 l -11.33,5.329 2.08,-11.09 C 147.796,66.705 138.446,65.147 129.34,67.802 l 0.795,11.292 -10.251,-6.676 c -1.2,0.877 -2.348,1.835 -3.432,2.88 l 4.903,10.294 -11.297,-1.903 c -0.742,1.356 -1.404,2.756 -1.96,4.199 l 8.493,8.075 -10.673,2.694 c -0.249,9.93 4.333,19.367 13.204,26.958 1.591,1.357 3.297,2.459 5.075,3.38 l 8.38,-8.565 2.37,11.887 c 0.865,0.124 1.734,0.224 2.61,0.307 l 6.331,-10.515 4.843,10.534 c 0.824,-0.054 1.644,-0.119 2.458,-0.193 l 5.199,-11.338 6.169,10.093 c 0.017,0 0.034,-0.006 0.048,-0.006 7.663,-0.837 13.443,3.624 16.31,9.405 l 11.699,2.847 -9.957,8.503 c -0.081,0.478 -0.189,0.966 -0.324,1.461 l 6.096,10.337 -13.51,-0.537 -1.524,11.848 -9.662,-8.066 c -1.491,-0.009 -2.984,-0.248 -4.467,-0.681 l -11.303,6.239 0.958,-11.746 c -0.462,-0.335 -0.918,-0.68 -1.373,-1.029 l -11.752,4.045 3.341,-11.057 c -4.462,-3.781 -9.609,-5.378 -14.901,-4.61 -5.269,0.766 -10.131,3.825 -14.272,8.846 l 4.808,11.336 -11.352,-2.147 -1.647,2.367 4.889,11.561 -11.162,-2.55 -2.31,3.316 10.201,8.344 14.864,-21.346 0.129,-0.197 c 2.442,-3.786 5.258,-6.168 7.738,-6.522 0.558,-0.086 2.255,-0.33 4.589,1.677 l 1.246,1.074 c 9.283,8.023 23.304,20.148 39.746,15.067 20.292,-6.273 26.527,-22.783 23.716,-36.37 -3.245,-15.615 -17.107,-26.141 -32.247,-24.478 -1.175,0.135 -2.382,0.274 -3.619,0.423 -10.361,1.217 -23.263,2.736 -29.892,-2.934 -6.628,-5.664 -9.518,-12.306 -8.368,-19.193 1.27,-7.534 6.928,-13.443 11.867,-15.384 6.686,-2.627 15.379,-3.494 41.246,16.84 9.101,7.151 18.456,2.833 24.715,-1.802 l -1.917,-2.127 c -0.846,-0.958 -1.706,-1.95 -2.58,-2.967 l 12.621,-2.243 -4.627,10.573 1.529,1.697 c 0.484,0.547 1.087,0.944 1.75,1.185 0.673,0.244 1.401,0.325 2.125,0.225 1.447,-0.211 2.698,-1.126 3.321,-2.445 l 10.41,-21.681 c 0.782,-1.63 0.479,-3.571 -0.762,-4.893 l -2.49,-2.651 c 4.153,-4.692 10.91,-6.169 16.724,-3.489 l 1.229,-2.649 c -3.116,-1.45 -6.459,-1.886 -9.651,-1.438 z"
             id="path4422"
             inkscape:connector-curvature="0"
             style="fill:#f9ec31" /></g></g></g><g
       id="g4678"><g
         id="g4384"
         style="fill:#231f20;fill-opacity:1"
         transform="matrix(1.2886835,0,0,1,-144.18619,-3.590997)"><g
           id="g4386"
           style="fill:#231f20;fill-opacity:1"><rect
             x="307.548"
             y="125.27"
             width="271.595"
             height="5.6420002"
             id="rect4388"
             style="fill:#231f20;fill-opacity:1" /></g></g><g
         style="font-style:normal;font-variant:normal;font-weight:normal;font-stretch:normal;font-size:105px;line-height:125%;font-family:Monospace;-inkscape-font-specification:Monospace;text-align:start;letter-spacing:0px;word-spacing:0px;writing-mode:lr-tb;text-anchor:start;fill:#003e22;fill-opacity:1;stroke:none;stroke-width:1px;stroke-linecap:butt;stroke-linejoin:miter;stroke-opacity:1"
         id="text4430"><path
           d="m 296.50879,66.959633 q 0,10.205078 -7.22656,16.162109 -7.22657,5.908203 -19.58008,5.908203 -10.79102,0 -17.38281,-4.394531 l 0,-13.378906 q 9.42382,5.273437 17.48046,5.273437 5.46875,0 8.54493,-2.050781 3.07617,-2.099609 3.07617,-5.712891 0,-2.099609 -0.6836,-3.662109 -0.63476,-1.611328 -1.85546,-2.978516 -1.22071,-1.367187 -6.05469,-4.980468 -6.73828,-4.833985 -9.47266,-9.570313 -2.73437,-4.736328 -2.73437,-10.205078 0,-6.298828 3.02734,-11.230469 3.02734,-4.980468 8.59375,-7.714843 5.61524,-2.783204 12.89063,-2.783204 10.5957,0 19.38476,4.833985 l -5.32226,11.376953 q -7.61719,-3.613281 -14.0625,-3.613281 -4.05274,0 -6.64063,2.197265 -2.58789,2.197266 -2.58789,5.810547 0,2.978516 1.61133,5.22461 1.61133,2.197265 7.22656,5.859375 5.9082,3.90625 8.83789,8.642578 2.92969,4.6875 2.92969,10.986328 z"
           style="font-size:100px;fill:#231f20;fill-opacity:1"
           id="path4664" /><path
           d="m 327.9541,89.029945 q -9.81445,0 -15.08789,-5.224609 -5.22461,-5.273438 -5.22461,-14.84375 0,-10.351563 3.61328,-18.798828 3.66211,-8.496094 10.25391,-13.085938 6.5918,-4.638672 15.03906,-4.638672 8.88672,0 16.01563,3.515625 l -4.49219,11.181641 q -2.63672,-1.123047 -5.17578,-1.953125 -2.53906,-0.830078 -5.76172,-0.830078 -4.15039,0 -7.51953,3.125 -3.32031,3.125 -5.22461,8.59375 -1.85547,5.419922 -1.85547,11.669922 0,4.6875 2.19727,7.080078 2.24609,2.34375 6.20117,2.34375 3.71093,0 6.88476,-1.123047 3.17383,-1.171875 6.54297,-2.880859 l 0,12.011718 q -7.42187,3.857422 -16.40625,3.857422 z"
           style="font-size:100px;fill:#231f20;fill-opacity:1"
           id="path4666" /><path
           d="m 367.21191,20.67057 q 0,-4.248047 2.29493,-6.396484 2.34375,-2.197266 6.59179,-2.197266 3.56446,0 5.41992,1.513672 1.85547,1.513672 1.85547,4.345703 0,3.90625 -2.14843,6.347657 -2.14844,2.392578 -6.64063,2.392578 -7.37305,0 -7.37305,-6.00586 z m 0.78125,67.382813 -14.69726,0 11.57226,-54.589844 14.69727,0 -11.57227,54.589844 z"
           style="font-size:100px;fill:#231f20;fill-opacity:1"
           id="path4668" /><path
           d="m 408.95477,50.260414 2.73438,0 q 6.93359,0 10.88867,-3.369141 4.00391,-3.36914 4.00391,-9.033203 0,-8.789062 -9.52149,-8.789062 l -3.61328,0 -4.49219,21.191406 z m 32.61719,-12.792969 q 0,11.767578 -8.30078,18.50586 -8.25195,6.689453 -22.80274,6.689453 l -4.19921,0 -5.32227,25.390625 -14.89258,0 15.08789,-71.386719 16.50391,0 q 11.81641,0 17.87109,5.224609 6.05469,5.175782 6.05469,15.576172 z"
           style="font-style:italic;font-variant:normal;font-weight:bold;font-stretch:normal;font-size:100px;font-family:'Open Sans';-inkscape-font-specification:'Open Sans Bold Italic';fill:#003e22;fill-opacity:1"
           id="path4670" /><path
           d="m 446.45477,33.463539 14.4043,0 2.73437,25.292969 q 0.6836,5.957031 0.6836,14.30664 l 0.29297,0 q 0.97656,-2.490234 2.14843,-5.810546 1.17188,-3.369141 3.17383,-7.519532 l 12.69532,-26.269531 15.96679,0 -33.20312,62.402344 q -8.64258,16.210937 -23.58399,16.210937 -4.39453,0 -7.17773,-0.92773 l 0,-11.718754 q 3.32031,0.634764 5.66406,0.634764 4.10156,0 7.17774,-2.343748 3.125,-2.34375 5.76171,-7.275391 l 1.26954,-2.392578 -8.00782,-54.589844 z"
           style="font-style:italic;font-variant:normal;font-weight:bold;font-stretch:normal;font-size:100px;font-family:'Open Sans';-inkscape-font-specification:'Open Sans Bold Italic';fill:#003e22;fill-opacity:1"
           id="path4672" /><path
           d="m 496.01532,88.053383 15.08789,-71.386719 14.94141,0 -12.5,58.886719 25,0 -2.63672,12.5 -39.89258,0 z"
           style="font-size:100px;fill:#231f20;fill-opacity:1"
           id="path4674" /><path
           d="m 586.29852,71.061195 -23.0957,0 -8.39844,16.992188 -15.625,0 37.40235,-71.679688 18.21289,0 7.17773,71.679688 -14.50195,0 -1.17188,-16.992188 z M 585.5661,58.365883 584.29657,41.276039 q -0.48828,-6.396484 -0.48828,-12.353516 l 0,-1.757812 q -2.14844,5.859375 -5.32227,12.402344 l -9.17968,18.798828 16.25976,0 z"
           style="font-size:100px;fill:#231f20;fill-opacity:1"
           id="path4676" /></g><g
         style="font-style:normal;font-variant:normal;font-weight:normal;font-stretch:normal;font-size:120px;line-height:125%;font-family:Monospace;-inkscape-font-specification:Monospace;text-align:start;letter-spacing:0px;word-spacing:0px;writing-mode:lr-tb;text-anchor:start;fill:#231f20;fill-opacity:1;stroke:none;stroke-width:1px;stroke-linecap:butt;stroke-linejoin:miter;stroke-opacity:1"
         id="text4436"><path
           d="m 366.6478,217.61922 -49.90235,0 0,-10.49805 17.91992,-18.11523 q 7.95899,-8.1543 10.4004,-11.2793 2.4414,-3.17383 3.51562,-5.85938 1.07422,-2.68554 1.07422,-5.5664 0,-4.29688 -2.39258,-6.39649 -2.34375,-2.09961 -6.29883,-2.09961 -4.15039,0 -8.05664,1.9043 -3.90625,1.9043 -8.15429,5.41992 l -8.20313,-9.71679 q 5.27344,-4.49219 8.74023,-6.34766 3.4668,-1.85547 7.56836,-2.83203 4.10157,-1.02539 9.17969,-1.02539 6.68945,0 11.81641,2.4414 5.12695,2.44141 7.95898,6.83594 2.83203,4.39453 2.83203,10.0586 0,4.93164 -1.75781,9.27734 -1.70898,4.29687 -5.37109,8.83789 -3.61328,4.54102 -12.79297,12.93945 l -9.17969,8.64258 0,0.68359 31.10352,0 0,12.69532 z"
           style="font-style:normal;font-variant:normal;font-weight:bold;font-stretch:normal;font-size:100px;font-family:'Open Sans';-inkscape-font-specification:'Open Sans Bold';fill:#231f20;fill-opacity:1"
           id="path4655" /><path
           d="m 423.28842,181.92586 q 0,18.70117 -6.15234,27.68554 -6.10352,8.98438 -18.84766,8.98438 -12.35351,0 -18.65234,-9.27734 -6.25,-9.27735 -6.25,-27.39258 0,-18.89649 6.10351,-27.83203 6.10352,-8.98438 18.79883,-8.98438 12.35352,0 18.65235,9.375 6.34765,9.375 6.34765,27.44141 z m -34.91211,0 q 0,13.13476 2.2461,18.84765 2.29492,5.66407 7.66601,5.66407 5.27344,0 7.61719,-5.76172 2.34375,-5.76172 2.34375,-18.75 0,-13.13477 -2.39258,-18.84766 -2.34375,-5.76172 -7.56836,-5.76172 -5.32226,0 -7.61719,5.76172 -2.29492,5.71289 -2.29492,18.84766 z"
           style="font-style:normal;font-variant:normal;font-weight:bold;font-stretch:normal;font-size:100px;font-family:'Open Sans';-inkscape-font-specification:'Open Sans Bold';fill:#231f20;fill-opacity:1"
           id="path4657" /><path
           d="m 468.11264,217.61922 -15.08789,0 0,-41.3086 0.14648,-6.78711 0.24414,-7.42187 q -3.75976,3.75976 -5.2246,4.93164 l -8.20313,6.5918 -7.27539,-9.08203 22.99805,-18.31055 12.40234,0 0,71.38672 z"
           style="font-style:normal;font-variant:normal;font-weight:bold;font-stretch:normal;font-size:100px;font-family:'Open Sans';-inkscape-font-specification:'Open Sans Bold';fill:#231f20;fill-opacity:1"
           id="path4659" /><path
           d="m 487.35092,187.29695 q 0,-21.1914 8.93555,-31.54297 8.98437,-10.35156 26.85547,-10.35156 6.10351,0 9.57031,0.73242 l 0,12.06055 q -4.3457,-0.97656 -8.59375,-0.97656 -7.76367,0 -12.69531,2.34375 -4.88282,2.34375 -7.32422,6.93359 -2.44141,4.58984 -2.88086,13.03711 l 0.63476,0 q 4.83399,-8.30078 15.47852,-8.30078 9.57031,0 14.99023,6.00586 5.41993,6.00586 5.41993,16.60156 0,11.42578 -6.44532,18.11523 -6.44531,6.64063 -17.87109,6.64063 -7.91016,0 -13.81836,-3.66211 -5.85937,-3.66211 -9.08203,-10.69336 -3.17383,-7.03125 -3.17383,-16.94336 z m 25.78125,19.23828 q 4.83399,0 7.42188,-3.22265 2.58789,-3.27149 2.58789,-9.27735 0,-5.22461 -2.44141,-8.20312 -2.39258,-3.02735 -7.27539,-3.02735 -4.58984,0 -7.86133,2.97852 -3.22265,2.97852 -3.22265,6.93359 0,5.81055 3.02734,9.81446 3.07617,4.0039 7.76367,4.0039 z"
           style="font-style:normal;font-variant:normal;font-weight:bold;font-stretch:normal;font-size:100px;font-family:'Open Sans';-inkscape-font-specification:'Open Sans Bold';fill:#231f20;fill-opacity:1"
           id="path4661" /></g></g></g></svg>